<svg width="193" height="57" viewBox="0 0 193 57" fill="none" xmlns="http://www.w3.org/2000/svg">
<g clip-path="url(#clip0_33_5605)">
<path d="M186.155 56.5H6.87953C5.06328 56.5 3.32124 55.7944 2.03583 54.5382C0.750409 53.2819 0.0266464 51.5776 0.0234375 49.7995V7.20054C0.0266464 5.42236 0.750409 3.71808 2.03583 2.46182C3.32124 1.20556 5.06328 0.499997 6.87953 0.5H186.155C187.97 0.5 189.711 1.20595 190.995 2.46255C192.278 3.71914 192.999 5.42345 192.999 7.20054V49.7995C192.999 51.5766 192.278 53.2809 190.995 54.5375C189.711 55.7941 187.97 56.5 186.155 56.5Z" fill="#A6A6A6"/>
<path d="M191.677 49.8825C191.674 51.3052 191.095 52.6687 190.066 53.6736C189.037 54.6786 187.643 55.2429 186.19 55.2429H6.87791C5.42469 55.2429 4.03081 54.6786 3.00209 53.6736C1.97337 52.6687 1.39383 51.3052 1.39062 49.8825V7.1887C1.39063 5.76388 1.96874 4.39743 2.9978 3.38992C4.02687 2.38242 5.42259 1.81641 6.87791 1.81641H186.154C187.609 1.81641 189.005 2.38242 190.034 3.38992C191.063 4.39743 191.641 5.76388 191.641 7.1887V49.8825H191.677Z" fill="#000100"/>
<path d="M43.1349 28.215C43.1519 26.8461 43.523 25.5037 44.2136 24.3132C44.9042 23.1228 45.8917 22.1232 47.0839 21.4077C46.3295 20.3456 45.3321 19.4709 44.1712 18.8531C43.0103 18.2354 41.7179 17.8919 40.3973 17.8499C37.575 17.5653 34.8495 19.4983 33.4201 19.4983C31.9908 19.4983 29.7862 17.8736 27.3635 17.921C25.8275 17.9693 24.3304 18.4066 23.0184 19.1902C21.7064 19.9737 20.6242 21.0769 19.8775 22.392C16.6312 27.8829 19.0538 35.9591 22.1548 40.3946C23.7053 42.5648 25.5223 44.996 27.8965 44.913C30.2707 44.83 31.0823 43.4543 33.8926 43.4543C36.7028 43.4543 37.5265 44.913 39.9492 44.8537C42.3718 44.7944 44.0192 42.6716 45.5091 40.4776C46.628 38.9292 47.4868 37.2157 48.0529 35.4018C46.6006 34.8123 45.3587 33.8154 44.4837 32.5366C43.6086 31.2578 43.1393 29.7542 43.1349 28.215Z" fill="white"/>
<path d="M38.5589 14.9449C39.9196 13.3465 40.5889 11.2912 40.4244 9.2168C38.351 9.43094 36.4356 10.4003 35.0582 11.9326C33.6969 13.4493 33.0044 15.432 33.1322 17.4472C34.1713 17.46 35.1998 17.2414 36.1399 16.8079C37.08 16.3744 37.9072 15.7373 38.5589 14.9449Z" fill="white"/>
<path d="M76.7496 37.0392H73.5033L71.7226 31.572H65.5449L63.849 37.0392H60.6875L66.8168 18.4199H70.5961L76.7496 37.0392ZM71.1896 29.2713L69.5786 24.4089C69.409 23.9108 69.0941 22.7486 68.6216 20.8511H68.5611C68.3794 21.6457 68.0765 22.8198 67.6647 24.4089L66.0779 29.2713H71.1896Z" fill="white"/>
<path d="M92.5003 30.16C92.6097 32.1378 91.9324 34.0802 90.6106 35.5797C90.0786 36.1499 89.4285 36.6024 88.7037 36.9071C87.9788 37.2118 87.196 37.3617 86.4073 37.3468C85.643 37.406 84.8766 37.2594 84.1913 36.9228C83.5059 36.5863 82.9276 36.0726 82.519 35.4374H82.4584V42.553H79.4059V28.0253C79.4059 26.5943 79.3696 25.1237 79.2969 23.6136H81.986L82.1556 25.7364H82.2162C82.6775 25.0442 83.2978 24.4671 84.0275 24.0514C84.7572 23.6356 85.5761 23.3927 86.4188 23.342C87.2615 23.2913 88.1046 23.4342 88.8808 23.7594C89.657 24.0845 90.3448 24.5829 90.8892 25.2146C92.0225 26.6165 92.5952 28.3746 92.5003 30.16ZM89.3993 30.2667C89.4433 29.1234 89.1306 27.9942 88.5029 27.0291C88.2421 26.6777 87.9107 26.3822 87.529 26.1606C87.1474 25.939 86.7236 25.7962 86.2835 25.7406C85.8435 25.6851 85.3965 25.7181 84.97 25.8377C84.5434 25.9573 84.1463 26.161 83.803 26.4361C83.187 26.9223 82.7595 27.6003 82.5917 28.3574C82.5058 28.6549 82.457 28.9615 82.4463 29.2705V31.512C82.4206 32.4191 82.75 33.3015 83.3669 33.9787C83.6661 34.3165 84.0394 34.5838 84.4589 34.7604C84.8784 34.937 85.3334 35.0185 85.7896 34.9986C86.3114 35.0165 86.8296 34.9065 87.297 34.6787C87.7645 34.4509 88.1665 34.1125 88.4666 33.6941C89.1424 32.678 89.4691 31.4773 89.3993 30.2667Z" fill="white"/>
<path d="M108.278 30.16C108.387 32.1378 107.71 34.0802 106.388 35.5797C105.856 36.1499 105.206 36.6024 104.481 36.9071C103.757 37.2118 102.974 37.3617 102.185 37.3468C101.419 37.4082 100.65 37.2627 99.9622 36.9261C99.2744 36.5894 98.6942 36.0745 98.2846 35.4374V42.553H95.1836V28.0253C95.1836 26.5903 95.1836 25.1197 95.0625 23.6136H97.7274L97.897 25.7364C98.3584 25.0442 98.9786 24.4671 99.7084 24.0514C100.438 23.6356 101.257 23.3927 102.1 23.342C102.942 23.2913 103.785 23.4342 104.562 23.7594C105.338 24.0845 106.026 24.5829 106.57 25.2146C107.733 26.6057 108.34 28.3633 108.278 30.16ZM105.177 30.2667C105.223 29.1216 104.906 27.9906 104.269 27.0291C103.974 26.6104 103.576 26.2706 103.113 26.0407C102.65 25.8108 102.135 25.698 101.616 25.7127C100.868 25.7101 100.143 25.9663 99.5686 26.4361C98.9625 26.9308 98.5373 27.6052 98.3573 28.3574C98.2714 28.6549 98.2226 28.9615 98.2119 29.2705V31.512C98.1863 32.4191 98.5156 33.3015 99.1326 33.9787C99.4317 34.3165 99.805 34.5838 100.225 34.7604C100.644 34.937 101.099 35.0185 101.555 34.9986C102.078 35.0197 102.597 34.9112 103.065 34.6831C103.533 34.455 103.935 34.1148 104.232 33.6941C104.912 32.6794 105.243 31.4786 105.177 30.2667Z" fill="white"/>
<path d="M125.915 31.7735C125.94 32.4992 125.803 33.2215 125.512 33.8894C125.221 34.5574 124.784 35.1548 124.232 35.6397C122.774 36.8001 120.923 37.3802 119.047 37.2644C117.322 37.3405 115.61 36.9288 114.117 36.0785L114.82 33.5999C116.148 34.3888 117.675 34.7994 119.229 34.7858C120.185 34.882 121.147 34.6561 121.954 34.1454C122.264 33.9012 122.512 33.5898 122.678 33.2358C122.844 32.8819 122.924 32.4949 122.911 32.1056C122.919 31.7506 122.852 31.3979 122.715 31.0694C122.577 30.7409 122.372 30.4437 122.112 30.1962C121.351 29.545 120.46 29.0563 119.495 28.7612C116.168 27.5357 114.501 25.7529 114.493 23.4127C114.477 22.6969 114.626 21.9868 114.931 21.3357C115.235 20.6847 115.686 20.1095 116.249 19.6532C117.566 18.6261 119.219 18.1034 120.901 18.1827C122.394 18.1315 123.879 18.4368 125.225 19.0721L124.377 21.4558C123.258 20.8774 122.008 20.5838 120.743 20.602C119.838 20.5436 118.944 20.8186 118.236 21.3728C117.992 21.5831 117.798 21.8425 117.666 22.1331C117.534 22.4238 117.468 22.7389 117.473 23.0569C117.467 23.4061 117.542 23.7521 117.693 24.0685C117.845 24.385 118.067 24.6636 118.345 24.8832C119.187 25.5 120.123 25.9842 121.119 26.3182C122.494 26.7857 123.738 27.5613 124.753 28.5833C125.528 29.4704 125.942 30.6062 125.915 31.7735Z" fill="white"/>
<path d="M135.994 25.843H132.639V32.3657C132.639 34.026 133.233 34.8562 134.42 34.8562C134.876 34.8657 135.332 34.8179 135.776 34.7138L135.861 36.9908C135.078 37.2332 134.259 37.3416 133.439 37.3111C132.917 37.3406 132.394 37.2594 131.907 37.0732C131.42 36.8869 130.98 36.6 130.616 36.2318C129.834 35.1898 129.472 33.9019 129.599 32.6147V25.843H127.648V23.6134H129.647V21.0993L132.639 20.2217V23.566H135.994V25.843Z" fill="white"/>
<path d="M151.164 30.2199C151.237 32.074 150.592 33.8868 149.359 35.2957C148.723 35.9743 147.944 36.5094 147.076 36.8637C146.208 37.218 145.272 37.383 144.332 37.3474C143.425 37.3959 142.519 37.2441 141.68 36.9033C140.842 36.5625 140.092 36.0415 139.487 35.3787C138.267 34.0141 137.626 32.2452 137.694 30.4334C137.614 28.5613 138.274 26.731 139.535 25.322C140.168 24.6565 140.941 24.1337 141.801 23.7896C142.66 23.4456 143.586 23.2887 144.514 23.3296C145.419 23.2936 146.321 23.4511 147.158 23.7911C147.995 24.131 148.746 24.6454 149.359 25.2983C150.584 26.6507 151.231 28.4132 151.164 30.2199ZM148.002 30.3148C148.033 29.1974 147.748 28.0935 147.179 27.1246C146.923 26.6308 146.531 26.2176 146.047 25.9323C145.563 25.647 145.006 25.5012 144.441 25.5117C143.867 25.4956 143.3 25.6384 142.805 25.9237C142.31 26.209 141.907 26.6252 141.643 27.1246C141.074 28.1106 140.794 29.2306 140.831 30.3622C140.796 31.4785 141.077 32.5825 141.643 33.5524C141.907 34.0442 142.303 34.456 142.789 34.7433C143.275 35.0306 143.831 35.1824 144.399 35.1824C144.966 35.1824 145.523 35.0306 146.008 34.7433C146.494 34.456 146.89 34.0442 147.154 33.5524C147.737 32.5707 148.031 31.45 148.002 30.3148Z" fill="white"/>
<path d="M161.072 26.2346C160.753 26.1761 160.428 26.1483 160.103 26.1516C159.621 26.13 159.141 26.2272 158.707 26.4344C158.273 26.6416 157.899 26.9522 157.62 27.3376C157.087 28.1225 156.82 29.052 156.857 29.9941V37.0386H153.816V27.8357C153.816 26.2939 153.816 24.8827 153.695 23.6137H156.36L156.469 26.1754H156.554C156.84 25.3368 157.37 24.5987 158.08 24.0525C158.714 23.5815 159.489 23.3274 160.285 23.3291C160.54 23.3291 160.796 23.349 161.048 23.3884L161.072 26.2346Z" fill="white"/>
<path d="M174.698 29.6856C174.704 30.1386 174.668 30.5912 174.589 31.0376H165.443C165.415 31.62 165.52 32.2012 165.75 32.7387C165.981 33.2763 166.331 33.7567 166.775 34.1447C167.627 34.7964 168.688 35.1287 169.767 35.0816C171.033 35.0977 172.29 34.8804 173.474 34.4412L173.947 36.5166C172.487 37.1021 170.92 37.3848 169.343 37.3468C168.423 37.3856 167.504 37.237 166.645 36.9104C165.786 36.5838 165.005 36.0863 164.353 35.4493C163.729 34.7867 163.246 34.0093 162.932 33.1624C162.618 32.3154 162.479 31.4157 162.524 30.5158C162.457 28.6878 163.058 26.8964 164.22 25.4636C164.795 24.7544 165.535 24.1889 166.377 23.8137C167.219 23.4385 168.14 23.2642 169.065 23.3052C169.94 23.2587 170.813 23.4327 171.599 23.8106C172.386 24.1885 173.061 24.7576 173.559 25.4636C174.376 26.7216 174.774 28.1968 174.698 29.6856ZM171.79 28.9147C171.833 28.1107 171.626 27.3129 171.197 26.6259C170.948 26.2215 170.59 25.8916 170.163 25.6721C169.736 25.4526 169.256 25.3518 168.774 25.3806C168.302 25.3709 167.835 25.4739 167.413 25.6805C166.991 25.8871 166.627 26.1912 166.351 26.5666C165.823 27.2546 165.511 28.0791 165.455 28.9384L171.79 28.9147Z" fill="white"/>
</g>
<defs>
<clipPath id="clip0_33_5605">
<rect width="193" height="56" fill="white" transform="translate(0 0.5)"/>
</clipPath>
</defs>
</svg>
