<svg width="392" height="167" viewBox="0 0 392 167" fill="none" xmlns="http://www.w3.org/2000/svg">
<g clip-path="url(#clip0_33_5652)">
<path d="M52.0155 94.4527C52.2384 93.9571 52.6182 93.5487 53.0962 93.2908C54.2778 92.9117 55.5223 92.7687 56.7589 92.8701C57.1992 92.8701 57.8497 92.8701 58.7603 92.8701L61.5523 92.79L64.5545 92.6698C65.5552 92.6097 66.4158 92.5596 67.1363 92.4995C67.2424 92.7638 67.2968 93.046 67.2964 93.3309V94.0019C67.2964 94.8834 66.9962 95.4142 66.3858 95.5845C65.275 95.7448 64.3843 95.915 63.7639 96.0753C63.2423 96.1942 62.7471 96.4081 62.3029 96.7063C61.9988 96.9223 61.7682 97.2264 61.6424 97.5777C61.5233 97.9567 61.4658 98.3524 61.4722 98.7496C61.4722 98.8598 61.4722 99.9115 61.6023 101.915C61.7324 103.918 61.8024 106.382 61.9726 109.327C62.1427 112.271 62.3028 115.457 62.4729 118.902C62.643 122.348 62.8032 125.603 62.9733 128.688C63.1434 131.773 63.2735 134.447 63.3836 136.701C63.4937 138.955 63.5838 140.357 63.6338 140.858C63.6191 141.327 63.6903 141.796 63.8439 142.24C64.0017 142.62 64.2614 142.95 64.5944 143.191C65.061 143.52 65.5832 143.761 66.1356 143.903C66.9849 144.133 67.847 144.314 68.7174 144.443C69.3278 144.554 69.6281 145.085 69.6281 146.026C69.6216 146.502 69.5645 146.975 69.4579 147.438L64.1742 147.148C62.5931 147.068 60.8118 147.028 58.8104 147.028C56.9791 147.028 55.0276 147.028 52.9461 147.148C50.8646 147.268 49.1334 147.328 47.7424 147.438C47.6434 146.974 47.5897 146.501 47.5823 146.026C47.5327 145.588 47.6352 145.146 47.8725 144.774C47.934 144.684 48.014 144.608 48.1072 144.551C48.2003 144.494 48.3046 144.457 48.4129 144.443C49.96 144.297 51.4595 143.83 52.816 143.071C53.1642 142.768 53.4363 142.387 53.6101 141.959C53.784 141.531 53.8547 141.068 53.8167 140.607C53.8167 140.447 53.8167 139.556 53.6966 137.943C53.5765 136.33 53.5265 134.337 53.4464 131.933C53.3664 129.529 53.2463 126.925 53.1163 124.181C52.9862 121.436 52.836 118.792 52.6959 116.348C52.5558 113.904 52.4458 111.801 52.3657 110.018C52.2857 108.235 52.2056 107.163 52.1556 106.773L35.1434 146.507C34.9355 146.898 34.6979 147.273 34.4328 147.629C34.3414 147.75 34.2215 147.848 34.0837 147.912C33.9459 147.977 33.7943 148.007 33.6423 147.999H33.142C32.9745 148.012 32.8065 147.984 32.6516 147.919L13.3378 101.614C13.3378 102.335 13.2177 103.788 13.1377 105.981C13.0576 108.175 12.9374 110.689 12.7973 113.523C12.6572 116.358 12.5272 119.333 12.3871 122.478C12.247 125.623 12.1169 128.488 12.0069 131.182C11.8968 133.876 11.8067 136.08 11.7166 137.883C11.6265 139.686 11.5965 140.677 11.5965 140.888C11.5866 141.324 11.6406 141.759 11.7567 142.18C11.8793 142.571 12.112 142.919 12.4271 143.181C12.8731 143.517 13.3844 143.756 13.9282 143.883C14.831 144.139 15.7461 144.349 16.6701 144.514C17.2806 144.624 17.5908 145.155 17.5908 146.096C17.6022 146.303 17.6022 146.51 17.5908 146.717C17.5908 146.968 17.5208 147.228 17.4707 147.508L13.3077 147.218C12.0368 147.138 10.7559 147.098 9.48504 147.098C8.37424 147.098 6.98321 147.098 5.32202 147.218C3.66083 147.338 2.15977 147.398 0.828813 147.508C0.714139 147.275 0.655824 147.018 0.658647 146.757V146.096C0.616828 145.676 0.70411 145.253 0.908826 144.884C1.08297 144.687 1.31987 144.556 1.57935 144.514C2.89024 144.273 4.15395 143.824 5.32202 143.181C5.70354 142.935 6.02245 142.603 6.25347 142.212C6.4845 141.821 6.62125 141.381 6.65293 140.928C6.65293 140.487 6.65297 139.145 6.8231 136.921C6.99322 134.698 7.07331 132.003 7.23342 128.908C7.39354 125.813 7.56366 122.548 7.73378 119.072C7.9039 115.597 8.05397 112.382 8.19407 109.417C8.33417 106.452 8.44433 103.958 8.52439 101.965C8.60444 99.9716 8.64447 98.9099 8.64447 98.7997C8.67451 98.4159 8.6067 98.0308 8.44743 97.6804C8.28815 97.3301 8.04258 97.0259 7.73378 96.7965C6.47939 96.1803 5.12258 95.8001 3.73092 95.6746C3.12048 95.6145 2.81021 95.0837 2.81021 94.0921V93.421C2.81357 93.1356 2.87135 92.8534 2.98038 92.5897C3.70089 92.6498 4.70161 92.6998 5.98253 92.7599C7.26344 92.82 8.56441 92.8501 9.89536 92.8801L13.638 92.9602C14.8089 92.9602 15.6395 92.9602 16.1398 92.9602C16.9191 92.9504 17.6981 92.9939 18.4715 93.0905C18.9223 93.1505 19.3674 93.2476 19.8024 93.3809C20.0873 93.4605 20.3354 93.6377 20.5029 93.8818C20.6409 94.0955 20.7678 94.3161 20.8832 94.5428L36.3542 131.943L52.0155 94.4527Z" fill="white"/>
<path d="M106.023 139.355C106.391 139.018 106.858 138.811 107.354 138.764C107.719 138.785 108.069 138.918 108.355 139.145C108.831 139.54 109.214 140.036 109.476 140.597C107.472 143.035 104.921 144.963 102.031 146.226C98.8683 147.484 95.4852 148.09 92.0835 148.009C89.9216 148.025 87.7715 147.687 85.7188 147.008C83.646 146.32 81.7355 145.216 80.1048 143.762C78.3988 142.216 77.0352 140.329 76.1019 138.224C75.0498 135.631 74.5298 132.853 74.5728 130.055C74.6158 127.257 75.2208 124.496 76.3521 121.937C77.4646 119.58 79.0053 117.451 80.8954 115.657C82.6378 113.968 84.6723 112.611 86.8997 111.651C88.8663 110.772 90.9907 110.301 93.1442 110.268C98.528 110.268 102.591 111.824 105.333 114.936C108.075 118.048 109.449 122.294 109.456 127.676C109.467 127.756 109.46 127.837 109.435 127.913C109.41 127.989 109.368 128.059 109.312 128.116C109.256 128.173 109.187 128.216 109.111 128.243C109.036 128.269 108.955 128.277 108.875 128.267L85.0685 129.269C85.0685 133.603 86.0357 136.921 87.9704 139.225C89.9052 141.529 92.8106 142.681 96.6868 142.681C98.3886 142.677 100.079 142.396 101.69 141.849C103.286 141.315 104.759 140.467 106.023 139.355ZM91.8233 113.944C90.7956 113.929 89.7811 114.178 88.877 114.667C87.9728 115.156 87.2093 115.87 86.6596 116.739C85.3253 118.602 84.6581 121.53 84.6581 125.523L97.5674 124.942C98.398 124.882 98.8083 124.521 98.8083 123.86C98.7979 122.737 98.6602 121.618 98.3979 120.525C98.1313 119.399 97.6996 118.319 97.117 117.32C96.5595 116.373 95.8136 115.552 94.9255 114.906C94.0194 114.264 92.9331 113.927 91.8233 113.944Z" fill="white"/>
<path d="M152.028 118.442C153.753 116.156 155.818 114.149 158.152 112.492C160.05 111.096 162.333 110.323 164.687 110.278C171.612 110.278 175.078 114.054 175.084 121.607V141.93C175.069 142.286 175.155 142.64 175.332 142.951C175.509 143.261 175.77 143.514 176.085 143.682C177.243 144.229 178.479 144.594 179.748 144.764C180.012 144.787 180.256 144.914 180.427 145.117C180.597 145.319 180.681 145.582 180.658 145.846V146.677C180.661 146.937 180.603 147.195 180.488 147.428C179.107 147.318 177.686 147.218 176.245 147.138C174.804 147.058 173.003 147.018 170.841 147.018C169.01 147.018 167.329 147.018 165.838 147.138C164.347 147.258 162.836 147.318 161.305 147.428C161.191 146.909 161.134 146.378 161.134 145.846C161.118 145.7 161.136 145.553 161.186 145.416C161.237 145.279 161.318 145.155 161.425 145.055C161.612 144.92 161.822 144.821 162.045 144.764C163.107 144.655 164.132 144.313 165.047 143.762C165.297 143.531 165.49 143.246 165.612 142.928C165.733 142.61 165.78 142.268 165.748 141.93V125.613C165.748 122.328 165.427 120.074 164.797 118.822C164.457 118.195 163.939 117.682 163.309 117.349C162.679 117.016 161.964 116.877 161.255 116.949C160.084 116.923 158.92 117.133 157.833 117.569C156.746 118.004 155.759 118.656 154.93 119.483C153.209 121.173 152.348 123.687 152.348 127.025V141.93C152.318 142.273 152.37 142.619 152.5 142.937C152.631 143.256 152.836 143.539 153.099 143.762C153.989 144.295 154.981 144.636 156.011 144.764C156.142 144.774 156.271 144.81 156.388 144.87C156.506 144.93 156.61 145.013 156.696 145.113C156.781 145.214 156.846 145.33 156.887 145.456C156.927 145.582 156.942 145.714 156.931 145.846V146.677C156.934 146.937 156.876 147.195 156.761 147.428C155.43 147.318 154.099 147.218 152.758 147.138C151.417 147.058 149.876 147.018 148.095 147.018C146.314 147.018 144.593 147.018 143.092 147.138C141.59 147.258 140.089 147.318 138.558 147.428C138.45 146.908 138.393 146.378 138.388 145.846C138.372 145.7 138.39 145.553 138.44 145.416C138.49 145.279 138.572 145.155 138.678 145.055C138.87 144.922 139.083 144.823 139.309 144.764C140.354 144.651 141.362 144.309 142.261 143.762C142.512 143.532 142.706 143.247 142.83 142.929C142.953 142.611 143.001 142.269 142.971 141.93V125.613C142.971 122.328 142.651 120.074 141.971 118.822C141.632 118.196 141.117 117.684 140.488 117.35C139.859 117.017 139.146 116.877 138.438 116.949C137.267 116.921 136.103 117.131 135.016 117.566C133.929 118.002 132.942 118.654 132.114 119.483C130.392 121.173 129.532 123.687 129.532 127.025V141.93C129.501 142.273 129.553 142.619 129.684 142.937C129.815 143.256 130.02 143.539 130.282 143.762C131.173 144.295 132.165 144.636 133.194 144.764C133.458 144.787 133.702 144.914 133.873 145.117C134.044 145.319 134.127 145.582 134.105 145.846V146.677C134.111 146.937 134.057 147.194 133.945 147.428C132.494 147.318 131.003 147.218 129.452 147.138C127.901 147.058 126.229 147.018 124.448 147.018C122.287 147.018 120.445 147.018 118.994 147.138C117.543 147.258 116.092 147.318 114.711 147.428C114.603 146.908 114.546 146.378 114.541 145.846C114.525 145.7 114.542 145.553 114.593 145.416C114.643 145.279 114.725 145.155 114.831 145.055C115.022 144.92 115.236 144.821 115.462 144.764C116.73 144.59 117.965 144.226 119.124 143.682C119.443 143.499 119.706 143.23 119.882 142.907C120.059 142.583 120.143 142.217 120.125 141.849V119.814C120.21 118.473 119.893 117.137 119.214 115.978C118.604 115.096 117.323 114.565 115.382 114.395C115.065 114.355 114.776 114.194 114.574 113.946C114.373 113.698 114.275 113.381 114.301 113.063V112.442C114.301 112.195 114.36 111.951 114.471 111.731C114.801 111.731 115.292 111.731 115.922 111.731L117.923 111.651C118.644 111.651 119.365 111.58 120.085 111.52C120.806 111.46 121.476 111.41 122.087 111.35C123.468 111.19 124.802 110.969 126.089 110.689C126.936 110.473 127.8 110.332 128.671 110.268C129.552 110.268 130.002 110.689 130.002 111.52C129.984 112.33 129.9 113.138 129.752 113.934C129.559 115.314 129.475 116.708 129.502 118.101C131.134 115.906 133.115 113.994 135.366 112.442C137.271 111.066 139.552 110.307 141.901 110.268C147.711 110.275 151.087 112.999 152.028 118.442Z" fill="white"/>
<path d="M185.321 129.189C185.293 126.606 185.787 124.044 186.773 121.657C187.703 119.388 189.087 117.334 190.841 115.622C192.595 113.909 194.681 112.575 196.97 111.701C199.462 110.736 202.114 110.253 204.785 110.278C207.52 110.24 210.237 110.723 212.791 111.701C215.093 112.587 217.19 113.933 218.956 115.657C220.702 117.352 222.067 119.401 222.958 121.667C223.895 124.066 224.36 126.623 224.329 129.199C224.358 131.785 223.864 134.35 222.878 136.741C221.947 138.985 220.56 141.011 218.805 142.691C217.011 144.387 214.904 145.717 212.601 146.607C210.105 147.568 207.45 148.047 204.775 148.019C202.042 148.06 199.325 147.581 196.77 146.607C194.485 145.734 192.404 144.401 190.655 142.691C188.943 141.009 187.609 138.98 186.743 136.741C185.789 134.338 185.306 131.774 185.321 129.189ZM195.799 127.526C195.799 132.634 196.646 136.714 198.341 139.766C200.035 142.817 202.464 144.347 205.626 144.353C206.905 144.442 208.182 144.154 209.299 143.524C210.417 142.893 211.324 141.949 211.911 140.808C213.151 138.454 213.772 135.128 213.772 130.851C213.772 125.803 212.911 121.723 211.19 118.612C209.479 115.507 207.067 113.944 203.955 113.944C202.666 113.858 201.381 114.157 200.263 114.802C199.144 115.448 198.242 116.411 197.67 117.57C196.429 119.984 195.799 123.299 195.799 127.526Z" fill="white"/>
<path d="M256.22 110.368C256.875 110.317 257.533 110.401 258.155 110.615C258.776 110.828 259.347 111.167 259.832 111.61C260.235 112.031 260.549 112.527 260.757 113.071C260.965 113.614 261.062 114.194 261.043 114.776C261.054 115.121 260.982 115.465 260.833 115.777C260.603 116.15 260.292 116.465 259.922 116.699C259.28 117.116 258.612 117.491 257.921 117.82C257.09 118.241 256.01 118.752 254.679 119.363C253.983 118.614 253.151 118.006 252.227 117.57C251.525 117.278 250.775 117.121 250.015 117.109C249.333 117.102 248.655 117.217 248.014 117.45C247.332 117.703 246.737 118.148 246.303 118.732C245.744 119.496 245.336 120.359 245.102 121.276C244.759 122.61 244.604 123.986 244.641 125.363V140.848C244.613 141.342 244.722 141.834 244.957 142.269C245.192 142.704 245.544 143.065 245.972 143.312C247.634 144.065 249.403 144.555 251.216 144.764C251.48 144.787 251.724 144.914 251.895 145.116C252.066 145.319 252.149 145.582 252.127 145.846C252.158 146.378 252.104 146.913 251.967 147.428C251.246 147.378 250.356 147.328 249.305 147.308C248.254 147.288 247.143 147.238 245.972 147.178C244.802 147.118 243.661 147.078 242.52 147.058C241.379 147.038 240.368 147.058 239.518 147.058C237.406 147.058 235.605 147.058 234.104 147.178C232.603 147.298 231.192 147.358 229.861 147.468C229.719 146.954 229.661 146.419 229.691 145.886C229.68 145.754 229.695 145.622 229.735 145.496C229.776 145.37 229.841 145.254 229.926 145.153C230.012 145.053 230.116 144.97 230.234 144.91C230.351 144.85 230.48 144.814 230.611 144.804C231.88 144.63 233.115 144.266 234.274 143.722C234.593 143.538 234.855 143.27 235.032 142.947C235.208 142.623 235.293 142.257 235.275 141.889V119.443C235.324 118.37 235.082 117.304 234.574 116.358C234.104 115.587 232.783 115.056 230.571 114.776C230.411 114.776 230.253 114.743 230.106 114.68C229.96 114.617 229.827 114.524 229.718 114.408C229.608 114.292 229.523 114.154 229.469 114.004C229.414 113.853 229.391 113.693 229.401 113.534V112.862C229.389 112.63 229.448 112.399 229.571 112.201C229.901 112.201 230.371 112.201 230.982 112.151L232.983 112.071L235.145 111.951C235.786 111.903 236.424 111.82 237.056 111.701C238.277 111.53 239.538 111.32 240.849 111.07C241.712 110.878 242.588 110.754 243.471 110.699C244.241 110.699 244.631 111.12 244.631 111.951V116.448C246.23 114.617 248.112 113.055 250.205 111.821C252.051 110.824 254.123 110.324 256.22 110.368Z" fill="white"/>
<path d="M284.667 134.858C285.998 131.583 287.129 128.848 288.039 126.695C288.95 124.541 289.691 122.749 290.241 121.356C290.791 119.964 291.242 118.872 291.452 118.071C291.674 117.425 291.802 116.75 291.832 116.068C291.832 114.956 290.941 114.185 289.16 113.734C288.862 113.664 288.581 113.538 288.33 113.363C288.232 113.242 288.159 113.103 288.116 112.953C288.073 112.803 288.061 112.647 288.079 112.492C288.085 112.279 288.116 112.067 288.169 111.861C288.169 111.61 288.28 111.35 288.33 111.07C290.551 111.243 292.966 111.327 295.575 111.32C297.903 111.32 300.038 111.237 301.979 111.07C302.094 111.365 302.165 111.675 302.19 111.991C302.19 112.322 302.19 112.542 302.19 112.652C302.19 113.26 301.829 113.65 301.109 113.824C300.328 113.984 299.708 114.145 299.237 114.275C298.787 114.401 298.372 114.631 298.027 114.946C297.665 115.284 297.358 115.676 297.116 116.108C296.836 116.579 296.505 117.24 296.115 118.111L278.663 158.927C277.643 161.565 275.745 163.769 273.289 165.167C270.997 166.386 268.439 167.016 265.843 167C265.644 167.018 265.443 166.99 265.256 166.919C265.069 166.848 264.9 166.735 264.763 166.589C264.55 166.329 264.434 166.004 264.433 165.668C264.391 163.99 264.734 162.325 265.433 160.8C266.104 159.438 266.884 158.797 267.765 158.797C268.214 158.787 268.663 158.844 269.096 158.967C269.644 159.092 270.205 159.146 270.767 159.127C271.927 159.206 273.081 158.9 274.049 158.256C274.924 157.503 275.595 156.542 276.001 155.461L279.753 146.447L267.014 118.051C266.634 117.22 266.294 116.558 266.014 116.048C265.771 115.625 265.459 115.246 265.093 114.926C264.751 114.643 264.357 114.432 263.932 114.305C263.482 114.165 262.931 114.014 262.181 113.844C261.855 113.79 261.563 113.614 261.362 113.352C261.161 113.089 261.068 112.761 261.1 112.432C261.122 111.949 261.206 111.471 261.35 111.01C262.681 111.12 264.092 111.19 265.593 111.22C267.094 111.25 268.926 111.22 271.087 111.22C273.089 111.22 274.8 111.22 276.241 111.22C277.682 111.22 279.133 111.12 280.574 111.01C280.713 111.472 280.797 111.95 280.824 112.432C280.839 112.585 280.823 112.74 280.776 112.887C280.729 113.034 280.653 113.17 280.552 113.286C280.45 113.403 280.327 113.497 280.188 113.564C280.049 113.63 279.897 113.668 279.743 113.674C278.852 113.708 277.982 113.952 277.202 114.385C277.032 114.519 276.896 114.689 276.802 114.884C276.709 115.078 276.66 115.291 276.661 115.507C276.732 116.105 276.874 116.694 277.082 117.26C277.609 118.791 278.221 120.292 278.913 121.757L284.667 134.858Z" fill="white"/>
<path d="M302.955 129.189C302.929 126.605 303.426 124.043 304.416 121.657C305.346 119.388 306.73 117.334 308.484 115.622C310.238 113.909 312.324 112.575 314.613 111.701C317.105 110.736 319.757 110.253 322.429 110.278C325.163 110.242 327.879 110.725 330.434 111.701C332.732 112.589 334.825 113.935 336.589 115.657C338.314 117.359 339.661 119.407 340.541 121.667C341.472 124.067 341.938 126.624 341.912 129.199C341.941 131.785 341.447 134.35 340.461 136.741C339.53 138.988 338.139 141.014 336.379 142.691C334.588 144.388 332.484 145.718 330.184 146.607C327.688 147.568 325.033 148.047 322.359 148.019C319.625 148.06 316.908 147.581 314.353 146.607C312.067 145.732 309.983 144.399 308.228 142.691C306.523 141.005 305.193 138.977 304.326 136.741C303.389 134.335 302.923 131.771 302.955 129.189ZM313.442 127.526C313.442 132.634 314.289 136.714 315.984 139.766C317.679 142.818 320.103 144.347 323.259 144.353C324.538 144.444 325.816 144.156 326.934 143.525C328.051 142.895 328.958 141.95 329.544 140.808C330.794 138.454 331.415 135.128 331.415 130.851C331.415 125.803 330.554 121.723 328.833 118.612C327.122 115.507 324.7 113.944 321.598 113.944C320.31 113.858 319.025 114.157 317.906 114.802C316.787 115.448 315.885 116.411 315.313 117.57C314.073 119.984 313.442 123.299 313.442 127.526Z" fill="#409587"/>
<path d="M385.925 141.929C385.914 142.291 386.002 142.648 386.178 142.964C386.354 143.28 386.613 143.542 386.926 143.722C388.077 144.273 389.317 144.612 390.588 144.724C390.811 144.781 391.022 144.88 391.209 145.014C391.317 145.113 391.4 145.237 391.451 145.374C391.501 145.512 391.518 145.66 391.499 145.806C391.516 146.099 391.516 146.394 391.499 146.687C391.499 146.928 391.429 147.168 391.379 147.388C389.938 147.278 388.487 147.178 387.046 147.098C385.605 147.018 383.803 146.978 381.642 146.978C379.861 146.978 378.199 146.978 376.638 147.098C375.077 147.218 373.586 147.278 372.145 147.388C372.003 146.873 371.946 146.339 371.975 145.806C371.964 145.674 371.979 145.542 372.019 145.416C372.06 145.29 372.125 145.174 372.21 145.073C372.296 144.973 372.401 144.89 372.518 144.83C372.636 144.77 372.764 144.734 372.896 144.724C373.925 144.596 374.917 144.255 375.808 143.722C376.07 143.499 376.275 143.216 376.406 142.897C376.537 142.578 376.589 142.233 376.558 141.889V125.613C376.558 122.328 376.148 120.074 375.347 118.822C374.926 118.194 374.346 117.689 373.665 117.359C372.984 117.03 372.228 116.889 371.475 116.949C370.293 116.927 369.118 117.14 368.019 117.575C366.92 118.01 365.917 118.658 365.07 119.483C363.302 121.173 362.415 123.687 362.408 127.025V141.929C362.377 142.273 362.43 142.618 362.56 142.937C362.691 143.256 362.896 143.539 363.159 143.762C364.049 144.295 365.041 144.636 366.071 144.764C366.335 144.787 366.579 144.914 366.749 145.116C366.92 145.319 367.004 145.582 366.981 145.846C367.013 146.378 366.958 146.913 366.821 147.428C365.38 147.318 363.879 147.218 362.328 147.138C360.777 147.058 359.106 147.018 357.324 147.018C355.153 147.018 353.322 147.018 351.871 147.138C350.419 147.258 348.968 147.318 347.587 147.428C347.528 147.198 347.484 146.964 347.457 146.727C347.44 146.434 347.44 146.139 347.457 145.846C347.441 145.7 347.459 145.553 347.509 145.416C347.559 145.278 347.641 145.155 347.748 145.054C347.938 144.92 348.152 144.821 348.378 144.764C349.644 144.592 350.875 144.228 352.031 143.682C352.35 143.498 352.612 143.23 352.789 142.907C352.965 142.583 353.049 142.217 353.031 141.849V119.814C353.117 118.473 352.799 117.137 352.121 115.977C351.51 115.096 350.229 114.565 348.288 114.395C347.971 114.355 347.682 114.194 347.481 113.946C347.279 113.698 347.181 113.381 347.207 113.063V112.442C347.208 112.195 347.266 111.951 347.377 111.731C347.708 111.731 348.198 111.731 348.828 111.731L350.83 111.65C351.55 111.65 352.271 111.58 352.991 111.52C353.712 111.46 354.382 111.41 354.993 111.35C356.374 111.19 357.708 110.969 358.996 110.689C359.842 110.474 360.706 110.333 361.577 110.268C362.468 110.268 362.908 110.689 362.908 111.52C362.89 112.33 362.806 113.138 362.658 113.934C362.465 115.314 362.381 116.708 362.408 118.101C364.046 115.897 366.042 113.984 368.312 112.442C370.291 111.055 372.642 110.297 375.057 110.268C376.513 110.187 377.97 110.395 379.344 110.882C380.718 111.368 381.982 112.123 383.063 113.103C385.004 114.996 385.975 117.82 385.975 121.597L385.925 141.929Z" fill="#409587"/>
<path d="M185.305 15.8455C186.738 18.3816 188.034 20.9929 189.187 23.6682C188.847 20.7756 188.663 17.8666 188.637 14.9541C188.637 10.4368 189.788 7.27168 191.419 5.31852C187.156 -3.59589 179.01 -0.861466 180.581 10.2565C182.519 11.7789 184.126 13.6806 185.305 15.8455Z" fill="white"/>
<path d="M169.891 25.7816C172.407 27.2617 174.839 28.8801 177.176 30.6294C175.431 28.2886 173.814 25.8544 172.333 23.3376C170.081 19.4313 169.491 16.116 169.931 13.6019C161.795 8.02287 156.101 14.4533 163.006 23.2976C165.445 23.6545 167.786 24.4993 169.891 25.7816Z" fill="white"/>
<path d="M154.317 43.4001C156.599 42.4702 159.048 42.0234 161.512 42.088C164.421 42.1193 167.328 42.3032 170.218 42.6389C167.544 41.4898 164.935 40.1957 162.402 38.7626C158.5 36.509 156.338 33.9248 155.457 31.5309C145.62 30.7697 143.909 39.2033 154.317 43.4001Z" fill="white"/>
<path d="M162.41 60.4177C164.944 58.9851 167.553 57.6879 170.225 56.5315C167.335 56.8721 164.429 57.0561 161.519 57.0824C157.016 57.0824 153.843 55.9305 151.892 54.2979C142.996 58.5648 145.718 66.7179 156.836 65.1454C158.347 63.201 160.245 61.5912 162.41 60.4177Z" fill="white"/>
<path d="M169.892 73.3986C167.435 74.9408 164.623 75.8238 161.727 75.9628H161.496C161.047 75.9556 160.598 75.9121 160.155 75.8326C154.601 83.9657 161.036 89.6549 169.872 82.7337C170.211 80.2949 171.049 77.9524 172.334 75.8526C173.813 73.3344 175.43 70.9 177.178 68.5608C174.84 70.3067 172.408 71.9217 169.892 73.3986Z" fill="white"/>
<path d="M189.186 75.5122C188.031 78.1865 186.735 80.7977 185.304 83.3349C183.052 87.2412 180.47 89.4047 178.089 90.2861C177.318 100.122 185.734 101.845 189.937 91.448C189.018 89.1541 188.576 86.6969 188.636 84.2263C188.662 81.3138 188.846 78.4048 189.186 75.5122Z" fill="white"/>
<path d="M195.951 37.9715H196.472C197.863 30.9601 199.344 21.7753 199.344 14.9342C199.356 13.6814 199.225 12.4312 198.954 11.2082C198.333 8.46375 197.072 7.14161 196.122 7.12158C195.121 7.12158 193.91 8.46375 193.289 11.2082C193.018 12.4312 192.887 13.6814 192.899 14.9342C192.899 21.7653 194.38 30.9 195.771 37.9715H195.951Z" fill="white"/>
<path d="M176.006 21.2144C179.428 27.1339 185.272 34.3055 190.016 39.7243L190.196 39.6241C190.346 39.534 190.506 39.4338 190.666 39.3537C190.116 37.7311 189.505 36.0083 188.855 34.2454C187.554 30.6897 186.073 26.9737 184.512 23.5782C183.581 21.575 182.62 19.6519 181.65 17.9691C179.428 14.1229 177.026 12.6606 175.645 12.6606C175.401 12.6547 175.159 12.7134 174.945 12.8308C174.124 13.3016 173.674 15.0845 174.505 17.7888C174.879 18.982 175.382 20.1307 176.006 21.2144Z" fill="white"/>
<path d="M164.578 35.0766C170.492 38.4922 179.138 41.7775 185.943 44.0912L186.043 43.921L186.313 43.4402C185.033 42.3184 183.642 41.1264 182.2 39.9245C179.298 37.5006 176.196 35.0266 173.104 32.9131C171.293 31.6311 169.501 30.4592 167.82 29.4876C166.015 28.3327 163.952 27.6443 161.816 27.4844H161.576C161.164 27.4397 160.747 27.4977 160.363 27.6532C159.979 27.8088 159.639 28.057 159.374 28.3758C158.894 29.1971 159.374 30.96 161.466 32.8931C162.416 33.7375 163.461 34.4702 164.578 35.0766Z" fill="white"/>
<path d="M179.209 48.228C175.477 47.587 171.524 47.016 167.801 46.6655C165.589 46.4652 163.458 46.345 161.516 46.345C156.193 46.345 153.711 48.2781 153.711 49.5902C153.711 50.5918 155.032 51.8238 157.794 52.4448C159.016 52.7156 160.265 52.8466 161.516 52.8355C168.341 52.8355 177.468 51.3531 184.533 49.9608V49.2096C182.852 48.8791 181.061 48.5485 179.209 48.228Z" fill="white"/>
<path d="M164.58 64.0937C159.977 66.758 158.796 69.6827 159.447 70.8146C159.712 71.1334 160.051 71.3816 160.435 71.5372C160.82 71.6927 161.236 71.7507 161.648 71.706C162.588 71.7044 163.521 71.5487 164.41 71.2453C165.602 70.8659 166.747 70.3518 167.823 69.7128C173.737 66.2973 180.902 60.4478 186.316 55.6901C186.286 55.628 186.253 55.5677 186.216 55.5098L185.945 55.0391C184.324 55.59 182.603 56.201 180.842 56.852C177.299 58.1541 173.587 59.6365 170.194 61.199C168.123 62.1606 166.211 63.1221 164.58 64.0937Z" fill="white"/>
<path d="M189.996 59.446C188.875 60.7381 187.695 62.1304 186.494 63.5727C184.072 66.4774 181.59 69.5824 179.439 72.6774C178.158 74.4904 176.987 76.2833 176.006 77.966C173.354 82.5734 173.785 85.6985 174.915 86.3495C175.736 86.8303 177.507 86.3495 179.429 84.2562C180.269 83.3376 181.008 82.33 181.63 81.2513C185.043 75.3317 188.325 66.6777 190.637 59.8667L190.467 59.7666L189.996 59.446Z" fill="white"/>
<path d="M203.036 23.6682C204.186 20.9911 205.482 18.3796 206.919 15.8455C208.095 13.6788 209.703 11.7766 211.643 10.2565C213.214 -0.861466 205.058 -3.59589 200.805 5.31852C202.436 7.27168 203.587 10.4368 203.587 14.9541C203.56 17.8666 203.377 20.7756 203.036 23.6682Z" fill="white"/>
<path d="M215.047 30.6294C217.382 28.8826 219.811 27.2642 222.322 25.7816C224.431 24.4991 226.775 23.6543 229.217 23.2976C236.122 14.4533 230.428 8.02287 222.292 13.6019C222.732 16.116 222.142 19.4313 219.89 23.3376C218.406 25.8521 216.789 28.2862 215.047 30.6294Z" fill="white"/>
<path d="M222 42.6389C224.89 42.3029 227.796 42.119 230.706 42.088C233.169 42.0243 235.619 42.471 237.901 43.4001C248.309 39.2033 246.598 30.7697 236.761 31.5309C235.88 33.9248 233.758 36.539 229.816 38.7626C227.283 40.1957 224.674 41.4898 222 42.6389Z" fill="white"/>
<path d="M240.333 54.2979C238.332 55.9305 235.209 57.0824 230.706 57.0824C227.796 57.0563 224.89 56.8724 222 56.5315C224.672 57.6879 227.281 58.9851 229.816 60.4177C231.978 61.5941 233.875 63.2034 235.39 65.1454C246.498 66.7179 249.229 58.5648 240.333 54.2979Z" fill="white"/>
<path d="M230.718 75.9527H230.498C227.598 75.8142 224.782 74.9311 222.322 73.3886C219.811 71.906 217.382 70.2876 215.047 68.5408C216.791 70.8824 218.408 73.3166 219.89 75.8326C221.175 77.9324 222.013 80.2749 222.352 82.7137C231.188 89.6349 237.623 83.9457 232.059 75.8125C231.617 75.8959 231.168 75.9428 230.718 75.9527Z" fill="white"/>
<path d="M206.915 83.3349C205.479 80.7998 204.183 78.1884 203.032 75.5122C203.372 78.4048 203.556 81.3138 203.582 84.2263C203.638 86.6966 203.195 89.1527 202.281 91.448C206.484 101.845 214.89 100.122 214.13 90.2861C211.748 89.4047 209.166 87.2412 206.915 83.3349Z" fill="white"/>
<path d="M207.725 23.5781C206.164 26.9736 204.723 30.6896 203.372 34.2453C202.731 36.0082 202.121 37.731 201.57 39.3536C201.73 39.4337 201.881 39.5339 202.041 39.624L202.211 39.7242C206.944 34.3054 212.788 27.1338 216.221 21.2142C216.858 20.1319 217.374 18.9833 217.762 17.7887C218.593 15.0843 218.142 13.3015 217.322 12.8307C217.104 12.7125 216.859 12.6538 216.611 12.6604C215.22 12.6604 212.828 14.1228 210.607 17.969C209.606 19.6517 208.655 21.5648 207.725 23.5781Z" fill="white"/>
<path d="M230.484 27.4643C228.348 27.6243 226.285 28.3126 224.48 29.4676C222.789 30.4692 221.007 31.611 219.196 32.8931C216.194 35.0566 213.002 37.5306 210.1 39.9044C208.658 41.1064 207.267 42.2983 205.977 43.4201C206.077 43.5804 206.167 43.7406 206.257 43.9009L206.357 44.0712C213.162 41.7374 221.808 38.4521 227.722 35.0566C228.8 34.4382 229.807 33.7026 230.724 32.8631C232.806 30.9299 233.296 29.1671 232.826 28.3458C232.56 28.0276 232.22 27.7799 231.836 27.6244C231.452 27.4689 231.036 27.4105 230.624 27.4543L230.484 27.4643Z" fill="white"/>
<path d="M234.427 52.4448C237.189 51.8238 238.51 50.5418 238.51 49.5902C238.51 48.2781 236.028 46.345 230.704 46.345C228.763 46.345 226.631 46.4652 224.41 46.6655C220.697 47.016 216.744 47.587 213.011 48.228C211.16 48.5485 209.369 48.8791 207.688 49.2296C207.688 49.3598 207.688 49.48 207.688 49.6102V49.7805C207.693 49.8472 207.693 49.9142 207.688 49.9809C214.753 51.3731 223.879 52.8555 230.704 52.8555C231.956 52.8601 233.205 52.7223 234.427 52.4448Z" fill="white"/>
<path d="M206.045 55.5398C206.016 55.602 205.982 55.6622 205.945 55.7201C211.369 60.4478 218.534 66.2972 224.449 69.7428C225.523 70.3836 226.668 70.8978 227.861 71.2753C228.75 71.5794 229.683 71.7351 230.623 71.736C231.035 71.7798 231.451 71.7214 231.835 71.5659C232.219 71.4105 232.559 71.1627 232.825 70.8446C233.475 69.7127 232.294 66.8381 227.691 64.1237C226 63.1221 224.098 62.1906 222.077 61.2591C218.684 59.6965 214.972 58.2542 211.419 56.912C209.658 56.261 207.937 55.65 206.326 55.0991C206.236 55.2293 206.145 55.3896 206.045 55.5398Z" fill="white"/>
<path d="M212.778 72.6774C210.627 69.6225 208.145 66.4774 205.723 63.5727C204.522 62.1304 203.342 60.7381 202.211 59.446C202.061 59.5462 201.901 59.6364 201.74 59.7265L201.57 59.8267C203.892 66.6377 207.174 75.2917 210.577 81.2112C211.196 82.2921 211.935 83.3 212.778 84.2161C214.7 86.2894 216.461 86.7902 217.292 86.3095C218.422 85.6584 218.853 82.5334 216.191 77.9259C215.23 76.2833 214.059 74.4904 212.778 72.6774Z" fill="white"/>
<path d="M197.455 66.5176C197.135 64.6646 196.804 62.8717 196.454 61.199H195.734C195.403 62.8717 195.063 64.6646 194.733 66.5176C194.092 70.2536 193.522 74.21 193.182 77.936C192.972 80.1496 192.852 82.2831 192.852 84.2262C192.852 89.5248 194.763 91.9988 196.074 92.0388C197.385 92.0388 199.296 89.5248 199.296 84.2262C199.296 82.2831 199.166 80.1496 198.966 77.936C198.676 74.21 198.095 70.2536 197.455 66.5176Z" fill="white"/>
<path d="M196.118 43.3101C194.498 43.3748 192.967 44.0643 191.844 45.234C190.721 46.4038 190.094 47.963 190.094 49.5852C190.094 51.2074 190.721 52.7667 191.844 53.9364C192.967 55.1061 194.498 55.7956 196.118 55.8603C197.737 55.7956 199.269 55.1061 200.392 53.9364C201.515 52.7667 202.142 51.2074 202.142 49.5852C202.142 47.963 201.515 46.4038 200.392 45.234C199.269 44.0643 197.737 43.3748 196.118 43.3101Z" fill="white"/>
</g>
<defs>
<clipPath id="clip0_33_5652">
<rect width="391" height="167" fill="white" transform="translate(0.5)"/>
</clipPath>
</defs>
</svg>
