<svg width="201" height="85" viewBox="0 0 201 85" fill="none" xmlns="http://www.w3.org/2000/svg">
<g clip-path="url(#clip0_43_10774)">
<path d="M26.4226 48.0836C26.5309 47.8308 26.7213 47.6214 26.9634 47.4888C27.5881 47.2984 28.2434 47.2267 28.8948 47.2776H29.8798H31.3091H32.8542L34.1675 47.1817C34.1942 47.3212 34.1942 47.4644 34.1675 47.6039V47.9492C34.1675 48.3841 34.013 48.6527 33.704 48.7551C33.2494 48.8154 32.7981 48.8986 32.352 49.0045C32.0833 49.0674 31.8281 49.1779 31.5988 49.3307C31.4467 49.4412 31.3322 49.5952 31.2704 49.7721C31.2393 49.9691 31.2393 50.1698 31.2704 50.3669C31.2704 50.3669 31.2704 50.9616 31.2704 51.9785C31.2704 52.9955 31.2704 54.2426 31.4636 55.816C31.6567 57.3894 31.6181 58.9435 31.7147 60.7088C31.8112 62.474 31.8885 64.105 31.9657 65.6783C32.043 67.2517 32.1202 68.614 32.1782 69.7652C32.2361 70.9165 32.1782 71.684 32.3134 71.895C32.2769 72.1238 32.2769 72.3569 32.3134 72.5857C32.4006 72.7801 32.533 72.9511 32.6997 73.0846C32.9419 73.2437 33.2097 73.3605 33.4915 73.43C33.9222 73.5555 34.361 73.6517 34.8049 73.7178C35.1332 73.7178 35.2877 74.044 35.2877 74.5237C35.311 74.7598 35.311 74.9975 35.2877 75.2336L32.5838 75.0993C31.7726 75.0993 30.8648 75.0993 29.8412 75.0993C28.8176 75.0993 27.9098 75.0993 26.8282 75.0993C25.7467 75.0993 24.8968 75.0993 24.1629 75.2336C24.1073 75.0007 24.075 74.7629 24.0663 74.5237C24.0466 74.3015 24.1009 74.079 24.2209 73.8905C24.2517 73.8449 24.2916 73.8061 24.3381 73.7764C24.3846 73.7467 24.4367 73.7268 24.4913 73.7178C25.2882 73.6507 26.0601 73.4082 26.751 73.0079C26.9509 72.8501 27.106 72.6432 27.2008 72.4076C27.2957 72.1721 27.327 71.916 27.2918 71.6648C27.2918 71.6648 27.2918 71.1275 27.2918 70.3024C27.2918 69.4774 27.2918 68.3838 27.1566 67.2517C27.0214 66.1197 27.1566 64.7382 26.9827 63.4142C26.8089 62.0903 26.8476 60.6704 26.7703 59.4232C26.693 58.1761 26.6544 57.1016 26.5965 56.1998C26.5385 55.298 26.5965 54.7416 26.4999 54.5497L17.6348 74.5813L17.2678 75.1569C17.2189 75.2169 17.1571 75.2653 17.0869 75.2985C17.0167 75.3317 16.94 75.3488 16.8622 75.3487H16.6112H16.3601L6.45204 51.7675C6.45204 52.1321 6.45205 52.8803 6.33616 53.9932C6.22028 55.106 6.33616 56.3916 6.18165 57.8307C6.02714 59.2697 6.02714 60.7855 5.96919 62.3973C5.91125 64.009 5.834 65.4672 5.77606 66.8103C5.71812 68.1534 5.66017 69.3239 5.62154 70.2257C5.58292 71.1275 5.62154 71.6455 5.62154 71.7415C5.58984 71.9578 5.58984 72.1776 5.62154 72.3939C5.6825 72.5868 5.80442 72.755 5.96919 72.8736C6.1904 73.0484 6.44753 73.1729 6.72244 73.2382C7.07009 73.3341 7.53363 73.4492 8.13236 73.5643C8.73109 73.6794 8.61521 73.8905 8.61521 74.3701C8.61521 74.3701 8.61521 74.5621 8.61521 74.6772C8.62438 74.8114 8.62438 74.946 8.61521 75.0802L6.49068 74.9459C5.83401 74.9459 5.17733 74.9459 4.55929 74.9459C3.94124 74.9459 3.28456 74.9459 2.43474 74.9459L0.117078 75.0802C0.0859739 74.9541 0.0859739 74.8225 0.117078 74.6964V74.3701C0.0899097 74.1561 0.137644 73.9394 0.252275 73.7563C0.333449 73.6535 0.450723 73.5848 0.580608 73.5643C1.26066 73.4501 1.91472 73.2162 2.512 72.8736C2.70407 72.7486 2.86484 72.5816 2.982 72.3854C3.09916 72.1892 3.16961 71.9689 3.18798 71.7415C3.18798 71.5112 3.18798 70.8205 3.18798 69.6884C3.18798 68.5564 3.32318 67.1749 3.40044 65.6207C3.47769 64.0665 3.57426 62.3781 3.67083 60.6128C3.7674 58.8476 3.82535 57.1975 3.90261 55.6817C3.97986 54.1659 4.0185 52.9187 4.07644 51.8442C4.13438 50.7697 4.07644 50.2901 4.07644 50.2325C4.09387 50.035 4.06047 49.8362 3.97939 49.6549C3.89831 49.4737 3.77219 49.3159 3.61289 49.1963C2.96909 48.8883 2.27641 48.6936 1.56562 48.6207C1.23729 48.6207 1.08277 48.3138 1.08277 47.8149V47.4695C1.05613 47.3301 1.05613 47.1868 1.08277 47.0474L2.60858 47.1433H4.53997H6.47136H7.97784C8.37661 47.1187 8.77654 47.1187 9.17531 47.1433L9.8513 47.2968C9.99558 47.3424 10.1232 47.4292 10.2183 47.5463C10.29 47.6572 10.3545 47.7725 10.4114 47.8916L18.3494 66.9256L26.4226 48.0836Z" fill="white"/>
<path d="M54.1177 70.9357C54.3064 70.7705 54.5433 70.6696 54.7937 70.6478C54.9715 70.6574 55.1412 70.7249 55.2766 70.8398C55.5269 71.032 55.7259 71.2824 55.856 71.5689C54.8242 72.8225 53.4975 73.8043 51.9932 74.4278C50.3747 75.0774 48.6394 75.3908 46.8943 75.3488C45.7839 75.3498 44.681 75.1683 43.6303 74.8116C42.5669 74.4642 41.5872 73.9024 40.7525 73.1615C39.8718 72.376 39.1676 71.4149 38.6859 70.3409C38.1269 69.0585 37.8566 67.6702 37.894 66.2732C37.897 64.8164 38.2338 63.3793 38.8791 62.0711C39.4432 60.8685 40.2293 59.7816 41.1967 58.8669C42.1009 58.0309 43.1387 57.3501 44.2676 56.8522C45.28 56.414 46.3696 56.1791 47.4737 56.1614C48.6287 56.0768 49.7882 56.2461 50.8698 56.6574C51.9514 57.0686 52.9285 57.7116 53.7315 58.5406C55.2084 60.3736 55.9574 62.6811 55.8367 65.0259C55.8367 65.2178 55.7401 65.3138 55.5276 65.3138L43.3406 65.8319C43.2181 67.6419 43.745 69.4365 44.8277 70.8973C45.3898 71.5049 46.0834 71.9779 46.8563 72.2803C47.6291 72.5828 48.4611 72.707 49.2893 72.6434C50.1695 72.6452 51.0439 72.5025 51.8773 72.2212C52.7064 71.9529 53.4696 71.515 54.1177 70.9357ZM46.8364 58.0034C46.3079 57.9988 45.7867 58.1264 45.3209 58.3745C44.8551 58.6227 44.4596 58.9834 44.1711 59.4233C43.4137 60.7872 43.0715 62.3404 43.1861 63.894L49.8107 63.6061C50.2163 63.6061 50.4288 63.3951 50.4288 63.0497C50.4307 62.4802 50.3593 61.9127 50.2163 61.3612C50.094 60.784 49.8718 60.2322 49.5597 59.7303C49.2872 59.2402 48.9037 58.8197 48.4394 58.5023C47.9738 58.1675 47.4111 57.9923 46.8364 58.0034Z" fill="white"/>
<path d="M77.6997 60.2867C78.5943 59.1287 79.6549 58.1072 80.8479 57.2551C81.8183 56.5484 82.9861 56.1595 84.1892 56.1422C87.743 56.1422 89.5198 58.0609 89.5198 61.8984V72.2596C89.514 72.4406 89.5599 72.6195 89.6522 72.7757C89.7445 72.9319 89.8794 73.059 90.0413 73.1422C90.653 73.424 91.3042 73.6116 91.9727 73.6986C92.0387 73.7035 92.1031 73.7212 92.1622 73.7509C92.2213 73.7805 92.2739 73.8216 92.3169 73.8715C92.36 73.9214 92.3927 73.9793 92.4132 74.0419C92.4337 74.1044 92.4415 74.1704 92.4362 74.2359V74.658C92.4673 74.784 92.4673 74.9157 92.4362 75.0418L90.2538 74.9074C89.5198 74.9074 88.5928 74.9074 87.4919 74.9074C86.391 74.9074 85.6764 74.9074 84.9038 74.9074L82.5861 75.0418C82.5254 74.7773 82.493 74.5072 82.4896 74.2359C82.4834 74.1616 82.494 74.0867 82.5208 74.0169C82.5475 73.9472 82.5896 73.8844 82.6441 73.833C82.7375 73.769 82.8424 73.7234 82.9531 73.6986C83.4915 73.6291 84.0103 73.4529 84.4789 73.1805C84.6063 73.0647 84.7056 72.9217 84.7692 72.7621C84.8327 72.6025 84.859 72.4307 84.8459 72.2596V63.9898C84.9219 62.8164 84.7508 61.6402 84.3437 60.5361C84.1602 60.2261 83.8927 59.9736 83.5717 59.8074C83.2507 59.6411 82.8891 59.5679 82.5282 59.596C81.9281 59.5824 81.3314 59.6892 80.7739 59.9101C80.2164 60.131 79.7094 60.4614 79.2835 60.8815C78.818 61.4018 78.462 62.0093 78.2365 62.6684C78.0109 63.3274 77.9204 64.0246 77.9701 64.719V72.3939C77.9564 72.5669 77.9842 72.7406 78.0514 72.9008C78.1185 73.0609 78.2231 73.2028 78.3564 73.3149C78.8135 73.582 79.3186 73.758 79.8436 73.833C79.9096 73.8378 79.974 73.8555 80.033 73.8852C80.0921 73.9149 80.1447 73.9559 80.1878 74.0058C80.2309 74.0557 80.2636 74.1137 80.2841 74.1762C80.3045 74.2387 80.3124 74.3046 80.3071 74.3701V74.7923C80.3382 74.9184 80.3382 75.05 80.3071 75.1761L78.2598 75.0418C77.5838 75.0418 76.7726 75.0418 75.8649 75.0418C74.9571 75.0418 74.0687 75.0418 73.2962 75.0418L70.9592 75.1761C70.9307 74.9082 70.9307 74.638 70.9592 74.3701C70.949 74.2972 70.956 74.2229 70.9794 74.153C71.0028 74.0831 71.0422 74.0196 71.0943 73.9673C71.1963 73.9063 71.3071 73.861 71.4227 73.833C71.9557 73.7662 72.4687 73.5897 72.9292 73.3149C73.059 73.2009 73.1599 73.0581 73.2236 72.8981C73.2874 72.738 73.3123 72.5653 73.2962 72.3939V63.9898C73.3761 62.8179 73.2117 61.6421 72.8133 60.5361C72.6298 60.2261 72.3623 59.9736 72.0413 59.8074C71.7203 59.6411 71.3587 59.5679 70.9978 59.596C70.3977 59.5824 69.801 59.6892 69.2435 59.9101C68.686 60.131 68.179 60.4614 67.753 60.8815C67.2838 61.3994 66.9255 62.0066 66.6997 62.6663C66.474 63.3259 66.3855 64.0243 66.4397 64.719V72.3939C66.4236 72.5653 66.4484 72.738 66.5122 72.8981C66.576 73.0581 66.6769 73.2009 66.8067 73.3149C67.271 73.5813 67.7824 73.7572 68.3132 73.833C68.3792 73.8378 68.4435 73.8555 68.5026 73.8852C68.5617 73.9149 68.6143 73.9559 68.6574 74.0058C68.7005 74.0557 68.7332 74.1137 68.7537 74.1762C68.7741 74.2387 68.7819 74.3046 68.7767 74.3701V74.7923C68.8078 74.9184 68.8078 75.05 68.7767 75.1761L66.459 75.0418C65.6671 75.0418 64.8173 75.0418 63.9096 75.0418C63.0018 75.0418 61.8623 75.0418 61.109 75.0418L58.9073 75.1761C58.8788 74.9082 58.8788 74.638 58.9073 74.3701C58.8962 74.2955 58.9046 74.2192 58.9316 74.1487C58.9587 74.0781 59.0035 74.0157 59.0618 73.9673C59.1552 73.9033 59.2601 73.8577 59.3708 73.833C60.0393 73.7459 60.6905 73.5583 61.3022 73.2766C61.4703 73.1855 61.6087 73.0486 61.7011 72.882C61.7934 72.7155 61.836 72.5261 61.8237 72.3363V61.1501C61.857 60.4797 61.6961 59.8138 61.3601 59.2314C61.109 58.9753 60.8086 58.772 60.4768 58.6336C60.145 58.4951 59.7886 58.4243 59.4287 58.4255C59.2665 58.4062 59.118 58.3258 59.0138 58.2008C58.9095 58.0759 58.8576 57.9159 58.8687 57.7539V57.4278C58.8737 57.3068 58.9067 57.1886 58.9652 57.0824H59.6991H60.7421C61.1152 57.102 61.4891 57.102 61.8623 57.0824H62.8859C63.6005 56.9865 64.2765 56.8713 64.9332 56.737C65.365 56.6338 65.804 56.5633 66.2466 56.5259C66.7101 56.5259 66.9419 56.737 66.9419 57.1591C66.9348 57.5717 66.8895 57.9828 66.8067 58.3872C66.7177 59.0935 66.6789 59.8052 66.6908 60.5169C67.5288 59.4005 68.5392 58.4227 69.6844 57.6196C70.6688 56.9283 71.8398 56.5472 73.0451 56.5259C74.1418 56.5106 75.209 56.8789 76.0599 57.5664C76.9109 58.254 77.4913 59.2169 77.6997 60.2867Z" fill="white"/>
<path d="M94.7762 65.755C94.7594 64.4381 95.0158 63.1318 95.5294 61.9176C95.9947 60.762 96.6987 59.7162 97.596 58.8476C98.5086 57.9856 99.5767 57.3021 100.744 56.833C102.026 56.3475 103.389 56.1067 104.761 56.1231C106.159 56.1002 107.549 56.3411 108.856 56.833C110.032 57.2975 111.107 57.9813 112.023 58.8476C112.868 59.7317 113.525 60.7758 113.955 61.9176C114.43 63.1412 114.666 64.4436 114.65 65.755C114.667 67.072 114.41 68.3783 113.897 69.5925C113.436 70.7441 112.724 71.7796 111.811 72.6241C110.894 73.4659 109.817 74.1181 108.644 74.5429C107.362 75.0345 106 75.2818 104.626 75.272C103.227 75.2887 101.838 75.0413 100.532 74.5429C99.3598 74.1269 98.2878 73.4735 97.3835 72.6241C96.5271 71.7639 95.8682 70.7296 95.4521 69.5925C94.9752 68.3699 94.7455 67.0659 94.7762 65.755ZM100.145 64.9108C100.048 67.0661 100.5 69.211 101.459 71.1467C101.789 71.851 102.315 72.4462 102.976 72.8613C103.637 73.2764 104.404 73.4938 105.186 73.4876C105.844 73.5294 106.5 73.3791 107.073 73.0552C107.646 72.7314 108.112 72.248 108.412 71.6648C109.131 70.0755 109.462 68.3398 109.377 66.5993C109.472 64.4421 109.014 62.2963 108.045 60.3634C107.724 59.6534 107.203 59.051 106.545 58.6288C105.887 58.2065 105.12 57.9826 104.337 57.9842C103.667 57.9456 103.002 58.108 102.426 58.4502C101.851 58.7924 101.393 59.2985 101.111 59.9029C100.405 61.4759 100.074 63.1898 100.145 64.9108Z" fill="white"/>
<path d="M131.142 56.1806C131.491 56.1464 131.843 56.1851 132.175 56.2941C132.508 56.4032 132.814 56.5802 133.074 56.8138C133.279 57.0287 133.439 57.2817 133.545 57.5584C133.651 57.835 133.701 58.1296 133.692 58.4254C133.696 58.605 133.657 58.7829 133.576 58.9435C133.458 59.1298 133.3 59.2872 133.112 59.404C132.791 59.6189 132.456 59.8112 132.108 59.9796L130.447 60.7664C130.09 60.3843 129.664 60.072 129.192 59.8454C128.83 59.6973 128.443 59.619 128.052 59.615C127.71 59.6148 127.37 59.6732 127.048 59.7878C126.701 59.9179 126.399 60.1444 126.179 60.4402C125.891 60.8324 125.682 61.2751 125.561 61.7449C125.389 62.422 125.311 63.1191 125.329 63.8171V71.6648C125.313 71.9146 125.368 72.1637 125.488 72.3841C125.607 72.6044 125.786 72.7873 126.005 72.912C126.856 73.2967 127.761 73.549 128.689 73.6602C128.755 73.6651 128.82 73.6829 128.879 73.7126C128.938 73.7422 128.991 73.7831 129.034 73.8331C129.077 73.883 129.109 73.9409 129.13 74.0035C129.15 74.066 129.158 74.132 129.153 74.1975C129.197 74.4644 129.197 74.7365 129.153 75.0033H127.782H126.082H124.305H122.76C121.678 75.0033 120.829 75.0033 119.979 75.0033L117.796 75.1377C117.752 74.8708 117.752 74.5987 117.796 74.3318C117.791 74.2663 117.799 74.2003 117.819 74.1378C117.84 74.0752 117.873 74.0173 117.916 73.9674C117.959 73.9175 118.011 73.8765 118.07 73.8469C118.129 73.8172 118.194 73.7994 118.26 73.7945C118.928 73.7075 119.58 73.5199 120.191 73.2381C120.359 73.1471 120.498 73.0102 120.59 72.8436C120.682 72.677 120.725 72.4878 120.713 72.298V60.9007C120.741 60.3525 120.614 59.8074 120.346 59.3273C120.114 58.9436 119.438 58.675 118.318 58.5215C118.237 58.519 118.157 58.5005 118.083 58.4674C118.009 58.4342 117.942 58.3869 117.886 58.3281C117.831 58.2693 117.787 58.2002 117.759 58.1247C117.73 58.0492 117.716 57.9689 117.719 57.8883V57.5429C117.716 57.4268 117.75 57.3127 117.816 57.2166H118.53H119.554C119.927 57.2357 120.301 57.2357 120.674 57.2166C121.005 57.196 121.335 57.1512 121.659 57.0824C122.277 57.0824 122.914 56.9097 123.59 56.7754C124.035 56.6742 124.487 56.6101 124.942 56.5835C125.329 56.5835 125.541 56.7945 125.541 57.2166V59.4999C126.361 58.5724 127.327 57.7821 128.4 57.1591C129.222 56.6191 130.162 56.2834 131.142 56.1806Z" fill="white"/>
<path d="M145.723 68.6524C146.418 66.9831 146.978 65.6016 147.461 64.4887C147.944 63.3759 148.292 62.5699 148.581 61.7833C148.871 60.9966 149.084 60.5169 149.199 60.114C149.318 59.774 149.383 59.4182 149.393 59.0587C149.393 58.5023 148.948 58.0993 148.021 57.8883C147.872 57.843 147.729 57.7784 147.596 57.6963C147.503 57.562 147.461 57.3983 147.481 57.2359C147.464 57.1342 147.464 57.0306 147.481 56.9289C147.481 56.7946 147.481 56.6603 147.481 56.5259C148.62 56.5259 149.856 56.6411 151.208 56.6411C152.56 56.6411 153.487 56.6411 154.492 56.5259C154.555 56.6712 154.588 56.828 154.588 56.9864C154.595 57.1014 154.595 57.2169 154.588 57.3319C154.588 57.6389 154.414 57.8308 154.047 57.9267C153.721 57.9834 153.398 58.0603 153.082 58.1569C152.849 58.2171 152.636 58.336 152.464 58.5023C152.279 58.6686 152.123 58.8629 152 59.0779C151.806 59.3995 151.632 59.7328 151.479 60.0757L142.517 80.8939C142.001 82.239 141.032 83.3647 139.774 84.079C138.584 84.7029 137.257 85.0259 135.912 85.0192C135.808 85.0264 135.705 85.0112 135.608 84.9747C135.511 84.9383 135.424 84.8814 135.351 84.8081C135.24 84.6725 135.179 84.5033 135.178 84.3284C135.155 83.4743 135.334 82.6268 135.699 81.8533C136.027 81.1625 136.433 80.8172 136.897 80.8172C137.121 80.7857 137.348 80.7857 137.573 80.8172C137.85 80.8879 138.136 80.9202 138.422 80.9131C139.025 80.9524 139.623 80.7903 140.122 80.4526C140.565 80.0691 140.904 79.5808 141.107 79.0328L143.038 74.4662L136.684 60.1524C136.472 59.7303 136.317 59.404 136.163 59.1546C136.045 58.9416 135.888 58.7529 135.699 58.5982C135.525 58.449 135.321 58.3379 135.1 58.2721L134.212 58.0418C134.043 58.0135 133.891 57.9223 133.787 57.787C133.683 57.6516 133.635 57.4821 133.652 57.3127C133.663 57.0709 133.709 56.8319 133.787 56.6028C134.463 56.6028 135.178 56.6028 135.95 56.6028H141.416C142.15 56.6028 142.903 56.6028 143.637 56.6028C143.706 56.8343 143.751 57.0721 143.772 57.3127C143.78 57.3924 143.772 57.4727 143.748 57.5491C143.724 57.6255 143.684 57.6963 143.632 57.7572C143.58 57.8182 143.516 57.8679 143.443 57.9036C143.371 57.9393 143.293 57.9602 143.212 57.965C142.753 57.9743 142.303 58.0927 141.899 58.3104C141.814 58.3807 141.746 58.4687 141.699 58.5682C141.652 58.6677 141.628 58.7763 141.628 58.8861C141.667 59.1933 141.738 59.4955 141.841 59.7878C141.976 60.2291 142.304 60.9966 142.787 62.0711L145.723 68.6524Z" fill="white"/>
<path d="M165.036 75.8284C163.579 75.8478 162.131 75.5941 160.768 75.0802C159.539 74.5976 158.417 73.8805 157.465 72.9695C156.543 72.0689 155.825 70.983 155.36 69.7844C154.856 68.501 154.607 67.1326 154.626 65.755C154.61 64.3803 154.872 63.0165 155.399 61.7449C155.903 60.5427 156.645 59.453 157.581 58.5405C158.534 57.6169 159.663 56.8927 160.903 56.4108C163.633 55.4124 166.632 55.4124 169.363 56.4108C170.598 56.8929 171.726 57.6099 172.685 58.5215C173.611 59.4369 174.335 60.535 174.809 61.7449C175.32 63.0204 175.576 64.3824 175.562 65.755C175.574 67.1374 175.305 68.508 174.771 69.7844C174.271 70.9883 173.52 72.0736 172.569 72.9695C171.603 73.8812 170.468 74.598 169.227 75.0802C167.89 75.589 166.468 75.8428 165.036 75.8284ZM165.036 56.641C163.716 56.6235 162.405 56.8581 161.174 57.3319C160.054 57.7607 159.035 58.4138 158.18 59.2506C157.311 60.1038 156.626 61.124 156.168 62.249C155.71 63.374 155.487 64.5801 155.515 65.7934C155.498 67.0453 155.721 68.2889 156.171 69.4582C156.603 70.5368 157.261 71.5116 158.103 72.3172C158.962 73.1477 159.98 73.8 161.096 74.2359C163.591 75.1427 166.328 75.1427 168.822 74.2359C169.947 73.7955 170.977 73.1441 171.854 72.3172C172.687 71.5047 173.344 70.5318 173.786 69.4582C174.263 68.2948 174.506 67.0497 174.5 65.7934C174.509 64.5467 174.279 63.3096 173.824 62.1478C173.39 61.0594 172.732 60.0728 171.893 59.2506C171.035 58.4176 170.017 57.765 168.899 57.3319C167.685 56.8661 166.396 56.6254 165.094 56.6218L165.036 56.641ZM165.461 73.9096C164.592 73.9182 163.739 73.6787 163.003 73.2195C162.266 72.7603 161.679 72.1008 161.309 71.3194C160.312 69.3127 159.84 67.0889 159.937 64.8533C159.855 63.0388 160.206 61.2307 160.961 59.5767C161.298 58.9109 161.822 58.3567 162.47 57.9819C163.118 57.6071 163.862 57.4278 164.611 57.4661C165.481 57.4669 166.332 57.7149 167.064 58.1807C167.797 58.6464 168.38 59.3105 168.745 60.0947C169.737 62.103 170.208 64.3258 170.116 66.561C170.204 68.3739 169.86 70.1819 169.112 71.8375C168.782 72.4977 168.268 73.0496 167.631 73.4273C166.994 73.8049 166.261 73.9924 165.519 73.9673L165.461 73.9096ZM164.611 58.4254C164.038 58.3824 163.464 58.5113 162.965 58.7951C162.466 59.079 162.064 59.5049 161.811 60.018C161.136 61.5383 160.825 63.1935 160.903 64.8533C160.811 66.9257 161.236 68.9886 162.139 70.8589C162.432 71.4877 162.901 72.0192 163.491 72.3901C164.08 72.761 164.764 72.9554 165.461 72.9503C166.03 72.9915 166.598 72.8663 167.096 72.59C167.594 72.3138 167.999 71.8987 168.262 71.3961C168.933 69.875 169.237 68.2194 169.15 66.561C169.239 64.4867 168.808 62.4229 167.895 60.5553C167.61 59.9421 167.155 59.4217 166.584 59.0549C166.013 58.6881 165.349 58.4898 164.669 58.483L164.611 58.4254Z" fill="white"/>
<path d="M177.936 75.5022C177.827 75.5086 177.719 75.475 177.634 75.4077C177.548 75.3405 177.491 75.2444 177.472 75.1377C177.463 75.0035 177.463 74.8689 177.472 74.7347C177.462 74.5622 177.462 74.3892 177.472 74.2167C177.458 74.067 177.482 73.9162 177.543 73.7785C177.604 73.6408 177.699 73.5208 177.82 73.43C177.966 73.3265 178.13 73.2487 178.303 73.1997C178.906 73.1291 179.493 72.9606 180.041 72.7008C180.137 72.6543 180.216 72.5797 180.268 72.4871C180.319 72.3945 180.341 72.2883 180.331 72.1829V60.9966C180.366 60.4087 180.232 59.8228 179.944 59.3081C179.5 58.911 178.919 58.6982 178.322 58.7133C178.042 58.6797 177.785 58.5426 177.603 58.3292C177.42 58.1158 177.325 57.8419 177.337 57.5621V57.2358C177.336 57.0361 177.382 56.8388 177.472 56.6602C177.627 56.3532 177.955 56.4108 178.631 56.3916H179.674H180.775H181.779C182.474 56.2956 183.15 56.1997 183.711 56.0654C184.179 55.9465 184.657 55.8695 185.14 55.8352C185.292 55.8211 185.446 55.84 185.59 55.8904C185.735 55.9408 185.866 56.0215 185.976 56.1271C186.086 56.2328 186.172 56.3609 186.228 56.5026C186.283 56.6443 186.308 56.7963 186.299 56.9481C186.29 57.3851 186.252 57.8211 186.183 58.2528C186.17 58.4765 186.17 58.7007 186.183 58.9243C186.837 58.1924 187.583 57.5474 188.404 57.0056C189.498 56.2472 190.797 55.8327 192.131 55.816C193.763 55.7407 195.358 56.3059 196.574 57.3894C197.15 58.0164 197.592 58.7526 197.874 59.5539C198.156 60.3552 198.272 61.2049 198.215 62.0519V72.4131C198.211 72.5127 198.234 72.6114 198.282 72.6992C198.329 72.787 198.4 72.8605 198.486 72.912C199.02 73.1661 199.595 73.3221 200.185 73.3725C200.373 73.4136 200.55 73.4919 200.707 73.6027C200.831 73.6914 200.93 73.8104 200.994 73.9482C201.058 74.086 201.086 74.2379 201.074 74.3893C201.086 74.5554 201.086 74.7221 201.074 74.8882C201.085 75.0287 201.085 75.1699 201.074 75.3104C201.055 75.4244 200.991 75.5264 200.898 75.5945C200.804 75.6627 200.687 75.6916 200.572 75.675L198.37 75.5406C197.655 75.5406 196.728 75.5406 195.627 75.5406C194.526 75.5406 193.87 75.5406 193.078 75.5406L190.799 75.675C190.695 75.6909 190.588 75.671 190.497 75.6186C190.405 75.5663 190.335 75.4847 190.297 75.3871C190.203 75.0632 190.164 74.726 190.181 74.3893C190.169 74.1421 190.252 73.8996 190.414 73.7109C190.575 73.5222 190.802 73.4013 191.05 73.3725C191.509 73.3352 191.952 73.1905 192.344 72.9503C192.416 72.882 192.471 72.7978 192.505 72.7045C192.538 72.6112 192.549 72.5114 192.537 72.4131V63.9898C192.644 62.8993 192.458 61.8 191.996 60.8048C191.82 60.5553 191.581 60.3564 191.303 60.2284C191.025 60.1003 190.718 60.0476 190.412 60.0756C189.867 60.0614 189.325 60.1559 188.817 60.3537C188.31 60.5514 187.847 60.8483 187.457 61.2268C187.024 61.6945 186.692 62.2461 186.483 62.8469C186.273 63.4478 186.191 64.085 186.241 64.7189V72.3939C186.229 72.4967 186.242 72.6008 186.279 72.6976C186.316 72.7943 186.376 72.8809 186.453 72.9503C186.843 73.1754 187.278 73.313 187.728 73.3533C187.975 73.3821 188.203 73.5031 188.364 73.6918C188.525 73.8805 188.608 74.1228 188.597 74.3701C188.614 74.7068 188.575 75.044 188.481 75.3679C188.44 75.4634 188.369 75.5431 188.278 75.595C188.188 75.6469 188.083 75.6683 187.979 75.6558L185.7 75.5214C184.908 75.5214 184.058 75.5214 183.15 75.5214C182.243 75.5214 181.219 75.5214 180.389 75.5214L177.936 75.5022ZM182.919 74.3318C183.846 74.3318 184.715 74.3318 185.507 74.3318C186.299 74.3318 186.781 74.3318 187.438 74.447C187.449 74.3449 187.449 74.2419 187.438 74.1399C186.817 74.0627 186.215 73.8742 185.661 73.5835C185.467 73.4278 185.313 73.228 185.212 73.001C185.111 72.774 185.067 72.5264 185.082 72.2788V64.6038C185.032 63.8397 185.141 63.0736 185.404 62.3537C185.667 61.6338 186.076 60.9758 186.608 60.421C187.085 59.9588 187.65 59.5953 188.27 59.3515C188.89 59.1078 189.553 58.9888 190.219 59.0012C190.687 58.9659 191.156 59.0558 191.578 59.2616C191.999 59.4674 192.357 59.7817 192.614 60.1716C193.218 61.3502 193.485 62.6708 193.387 63.9898V72.3172C193.402 72.5648 193.357 72.8124 193.257 73.0394C193.156 73.2664 193.002 73.4662 192.807 73.6219C192.294 73.9461 191.712 74.1495 191.108 74.2167C191.108 74.3702 191.108 74.5045 191.108 74.6005C191.713 74.6005 192.357 74.562 193.039 74.4852C193.831 74.4852 194.7 74.4852 195.627 74.4852C196.554 74.4852 197.674 74.4852 198.428 74.4852L200.205 74.6005C200.205 74.6005 200.205 74.4085 200.205 74.2934C200.205 74.1783 200.205 74.2934 200.089 74.2934C199.414 74.212 198.76 74.0105 198.157 73.6986C197.928 73.5672 197.738 73.3765 197.609 73.1468C197.48 72.9171 197.416 72.6569 197.423 72.3939V62.0327C197.478 61.3144 197.386 60.5927 197.154 59.9104C196.921 59.2281 196.553 58.5991 196.071 58.0609C195.564 57.604 194.968 57.2533 194.321 57.0291C193.675 56.805 192.989 56.7121 192.305 56.7561C191.165 56.7763 190.057 57.1301 189.118 57.7731C188 58.5366 187.015 59.4764 186.202 60.5553C186.141 60.6359 186.056 60.6954 185.96 60.7254C185.863 60.7554 185.759 60.7544 185.663 60.7226C185.567 60.6907 185.483 60.6296 185.424 60.5479C185.365 60.4663 185.333 60.3681 185.333 60.2675C185.325 59.5297 185.371 58.7923 185.468 58.0609C185.536 57.6806 185.575 57.2958 185.584 56.9097C185.593 56.8654 185.593 56.8196 185.584 56.7754H185.41C185 56.8085 184.593 56.8727 184.193 56.9673C183.506 57.1244 182.809 57.2397 182.107 57.3127H181.045C180.678 57.3127 180.311 57.3127 179.925 57.3127H178.882H178.515V57.5237C178.515 57.658 178.515 57.6963 178.689 57.7347C179.116 57.7264 179.54 57.8115 179.93 57.9839C180.321 58.1563 180.669 58.4119 180.949 58.7325C181.359 59.4003 181.555 60.1769 181.509 60.9582V72.1444C181.519 72.4179 181.454 72.689 181.321 72.9289C181.189 73.1687 180.993 73.3684 180.755 73.5068C180.106 73.8028 179.416 74.0032 178.708 74.1016H178.592C178.6 74.2038 178.6 74.3063 178.592 74.4085C179.172 74.4085 179.751 74.4085 180.35 74.2934C180.949 74.1783 181.798 74.351 182.957 74.351L182.919 74.3318Z" fill="white"/>
<path d="M94.774 8.0779C95.4864 9.36777 96.1311 10.6935 96.7053 12.0497C96.5285 10.5785 96.4317 9.09896 96.4156 7.61742C96.3129 5.86594 96.8173 4.13237 97.8449 2.70546C95.6624 -1.82275 91.4713 -0.422062 92.2824 5.23821C93.3057 5.99913 94.1549 6.96697 94.774 8.0779Z" fill="white"/>
<path d="M86.8719 13.1241C88.1568 13.8845 89.401 14.7107 90.5995 15.5993C89.7003 14.4053 88.8685 13.1626 88.108 11.877C87.1312 10.419 86.6943 8.66917 86.8719 6.92662C82.7001 4.08689 79.7837 7.36795 83.3375 11.8578C84.5877 12.046 85.7886 12.4762 86.8719 13.1241Z" fill="white"/>
<path d="M78.8789 22.1038C80.0473 21.6246 81.3043 21.3958 82.5678 21.4323C84.0591 21.4483 85.5485 21.5444 87.0293 21.7201C85.6642 21.1496 84.3297 20.5091 83.0314 19.8013C81.4278 18.9949 80.1574 17.6582 79.439 16.0215C74.4174 15.6761 73.6448 19.9549 78.8789 22.1038Z" fill="white"/>
<path d="M83.0271 30.7573C84.3255 30.0495 85.66 29.4091 87.0251 28.8386C85.5442 29.0143 84.0549 29.1104 82.5636 29.1264C80.8006 29.2285 79.0556 28.7274 77.6192 27.7066C73.0612 29.8748 74.4711 34.0191 80.1687 33.2325C80.9293 32.211 81.9047 31.3664 83.0271 30.7573Z" fill="white"/>
<path d="M86.8737 37.3578C85.6136 38.1451 84.1696 38.5947 82.6826 38.6625H82.5667C82.3354 38.6833 82.1027 38.6833 81.8714 38.6625C79.0129 42.807 82.3156 45.6851 86.8544 42.1738C87.0292 40.931 87.4564 39.7364 88.1098 38.6625C88.8752 37.3861 89.7068 36.15 90.6013 34.9594C89.4014 35.8224 88.1572 36.623 86.8737 37.3578Z" fill="white"/>
<path d="M96.8188 38.4323C96.2444 39.7946 95.5998 41.1268 94.8874 42.4233C94.0648 44.02 92.6948 45.2721 91.0246 45.9537C90.6384 50.9616 94.8874 51.8442 97.1085 46.5485C96.6321 45.386 96.402 44.1385 96.4326 42.8837C96.4813 41.3941 96.6102 39.9082 96.8188 38.4323Z" fill="white"/>
<path d="M100.217 19.3408H100.488C101.321 15.4831 101.812 11.5603 101.956 7.61735C101.961 6.97271 101.896 6.32938 101.762 5.69861C101.453 4.29793 100.797 3.62634 100.314 3.62634C99.831 3.62634 99.1937 4.29793 98.8653 5.69861C98.7314 6.32938 98.6666 6.97271 98.6722 7.61735C98.8158 11.5603 99.3069 15.4831 100.14 19.3408H100.217Z" fill="white"/>
<path d="M90.0045 10.8026C92.1193 14.1394 94.5164 17.2911 97.17 20.2235L97.4211 20.07L96.494 17.4797C95.818 15.6761 95.0648 13.7765 94.2536 12.0497C93.7707 11.0136 93.2879 10.131 92.7857 9.19079C91.6462 7.27205 90.4101 6.48542 89.7148 6.48542C89.5947 6.45278 89.468 6.45278 89.3478 6.48542C88.9229 6.71567 88.6912 7.61747 89.1161 8.99896C89.3386 9.63328 89.6369 10.2388 90.0045 10.8026Z" fill="white"/>
<path d="M84.1114 17.9402C87.6206 19.7874 91.2847 21.3282 95.0624 22.5452V22.4491L95.1976 22.1997L93.0924 20.4153C91.6052 19.1873 89.9828 17.9209 88.4184 16.8273C87.4913 16.1749 86.487 15.5801 85.7145 15.0813C84.7849 14.4937 83.7231 14.1442 82.6242 14.0643C82.0641 14.0643 81.6586 14.2369 81.504 14.5247C81.3495 14.8126 81.504 15.8487 82.5663 16.8273C83.0407 17.2509 83.5586 17.6239 84.1114 17.9402Z" fill="white"/>
<path d="M91.6426 24.5598C89.7112 24.2336 87.7798 23.9267 85.8484 23.754C84.7089 23.754 83.6273 23.6005 82.623 23.6005C79.8997 23.6005 78.625 24.579 78.625 25.2505C78.625 25.9221 79.301 26.3826 80.7109 26.7088C81.3458 26.8419 81.9934 26.9062 82.6423 26.9006C86.6112 26.758 90.5599 26.27 94.4431 25.4424V25.0587C93.4967 24.886 92.589 24.7133 91.6426 24.5598Z" fill="white"/>
<path d="M84.1149 32.6376C81.7586 33.9807 81.1406 35.4774 81.4882 36.053C81.624 36.2136 81.7966 36.3392 81.9916 36.4194C82.1866 36.4995 82.3982 36.5318 82.6084 36.5135C83.0891 36.5084 83.5655 36.4241 84.0183 36.2641C84.634 36.0818 85.2245 35.8241 85.7759 35.4966C89.1395 33.3954 92.3125 31.007 95.2591 28.3589L95.1045 28.1094L92.4972 29.0305C90.6816 29.7021 88.7696 30.4503 87.0313 31.2562C86.0354 31.6655 85.0619 32.1265 84.1149 32.6376Z" fill="white"/>
<path d="M97.1667 30.2584C96.6066 30.93 95.9885 31.6208 95.3705 32.3691C94.1344 33.8465 92.8597 35.439 91.7588 36.9932C91.1021 37.9334 90.5034 38.912 90.0012 39.6987C88.6299 42.0395 88.8617 43.5361 89.4411 43.9582C90.0205 44.3803 90.7738 43.9582 91.7588 42.8837C92.191 42.4171 92.567 41.902 92.879 41.3488C94.742 37.8576 96.293 34.2109 97.5143 30.4504H97.4178L97.1667 30.2584Z" fill="white"/>
<path d="M103.854 12.0497C104.428 10.6935 105.073 9.36773 105.785 8.07786C106.387 6.97252 107.216 6.00512 108.219 5.23817C109.03 -0.51804 104.839 -1.82279 102.656 2.70542C103.698 4.12525 104.204 5.86414 104.085 7.61738C104.089 9.09788 104.011 10.5775 103.854 12.0497Z" fill="white"/>
<path d="M110.016 15.5993C111.218 14.706 112.468 13.8796 113.763 13.1241C114.844 12.472 116.046 12.0415 117.297 11.8578C120.831 7.36795 117.915 4.08689 113.743 6.92662C113.921 8.66917 113.484 10.419 112.507 11.877C111.747 13.1626 110.915 14.4053 110.016 15.5993Z" fill="white"/>
<path d="M113.586 21.7776C115.067 21.6019 116.556 21.5058 118.047 21.4898C119.311 21.4532 120.568 21.6821 121.736 22.1614C127.067 20.0124 126.198 15.7336 121.157 16.1173C120.425 17.7151 119.164 19.0154 117.584 19.8013C116.287 20.5286 114.952 21.1884 113.586 21.7776Z" fill="white"/>
<path d="M122.992 27.649C121.556 28.6698 119.811 29.1709 118.047 29.0688C116.556 29.0528 115.067 28.9568 113.586 28.7811C114.951 29.3516 116.286 29.992 117.584 30.6998C118.701 31.2922 119.676 32.1167 120.442 33.1173C126.159 33.9616 127.55 29.8172 122.992 27.649Z" fill="white"/>
<path d="M118.066 38.6625H117.95C116.468 38.5975 115.03 38.1476 113.778 37.3578C112.484 36.6091 111.233 35.7892 110.031 34.9019C110.926 36.0926 111.757 37.3286 112.523 38.605C113.176 39.6789 113.603 40.8734 113.778 42.1162C118.317 45.6275 121.62 42.7495 118.761 38.605C118.532 38.645 118.299 38.6642 118.066 38.6625Z" fill="white"/>
<path d="M105.837 42.4233C105.125 41.1268 104.48 39.7946 103.906 38.4323C104.082 39.9099 104.179 41.3958 104.196 42.8837C104.223 44.1364 104 45.382 103.539 46.5485C105.683 51.8442 109.99 50.9616 109.604 45.9537C107.97 45.2532 106.636 44.0033 105.837 42.4233Z" fill="white"/>
<path d="M106.265 12.0112C105.473 13.7381 104.701 15.6377 104.044 17.4413C103.697 18.3495 103.388 19.213 103.117 20.0316L103.349 20.1851H103.446C106.105 17.2576 108.503 14.1053 110.611 10.7641C110.949 10.2181 111.215 9.63123 111.403 9.01799C111.828 7.6365 111.596 6.7347 111.171 6.50445C111.057 6.47435 110.937 6.47435 110.823 6.50445C110.109 6.50445 108.892 7.25283 107.733 9.20994C107.231 10.0158 106.748 10.9751 106.265 12.0112Z" fill="white"/>
<path d="M117.933 13.9876C116.834 14.0676 115.772 14.4169 114.843 15.0045C113.973 15.5034 113.066 16.0982 112.139 16.7506C110.574 17.8443 108.952 19.1106 107.465 20.3386L105.359 22.123L105.495 22.3725V22.4684C109.274 21.255 112.938 19.7142 116.446 17.8635C117.005 17.5484 117.53 17.1753 118.01 16.7506C119.072 15.772 119.323 14.8318 119.072 14.4481C118.821 14.0643 118.512 14.0068 117.952 13.9876H117.933Z" fill="white"/>
<path d="M119.995 26.7088C121.404 26.3827 122.08 25.7303 122.08 25.2506C122.08 24.7709 120.767 23.6964 118.063 23.6964C117.078 23.6964 115.977 23.6964 114.838 23.8499C112.906 24.0226 110.975 24.3296 109.044 24.6558C108.097 24.8093 107.112 24.982 106.32 25.1547V25.5384C110.204 26.365 114.152 26.8528 118.121 26.9966C118.754 26.9666 119.382 26.8702 119.995 26.7088Z" fill="white"/>
<path d="M105.414 28.2822C108.361 30.9304 111.534 33.3186 114.897 35.4198C115.449 35.7473 116.039 36.0051 116.655 36.1874C117.108 36.3474 117.584 36.4317 118.065 36.4368C118.275 36.4551 118.486 36.4228 118.681 36.3427C118.876 36.2625 119.049 36.1369 119.185 35.9764C119.533 35.4007 118.915 33.9041 116.558 32.5609C115.625 32.025 114.665 31.5382 113.68 31.1027C111.942 30.2968 110.03 29.5486 108.215 28.877L105.607 27.9559L105.414 28.2822Z" fill="white"/>
<path d="M108.854 36.9932C107.753 35.439 106.479 33.8465 105.243 32.3691C104.625 31.6208 104.026 30.93 103.446 30.2584L103.195 30.412C104.402 34.175 105.947 37.8225 107.811 41.3104C108.123 41.8636 108.499 42.3787 108.932 42.8453C109.936 43.9006 110.863 44.1692 111.249 43.9198C111.635 43.6704 112.06 42.0011 110.689 39.6603C110.11 38.8352 109.511 37.9334 108.854 36.9932Z" fill="white"/>
<path d="M100.993 33.8656C100.839 32.9255 100.665 31.947 100.491 31.1603H100.124C99.9503 32.0045 99.7765 32.9255 99.6219 33.8656C99.2936 35.7844 99.0039 37.7031 98.8108 39.6219C98.7142 40.7539 98.6562 41.8284 98.6562 42.8261C98.6562 45.5123 99.6413 46.7787 100.298 46.7979C100.974 46.7979 101.94 45.5123 101.94 42.8261C101.94 41.8284 101.94 40.7539 101.785 39.6219C101.631 37.7799 101.322 35.7652 100.993 33.8656Z" fill="white"/>
<path d="M100.32 22.0463C99.5099 22.1087 98.7536 22.4724 98.2019 23.0646C97.6502 23.6568 97.3438 24.434 97.3438 25.241C97.3438 26.0479 97.6502 26.8251 98.2019 27.4174C98.7536 28.0096 99.5099 28.3732 100.32 28.4356C101.13 28.3732 101.886 28.0096 102.438 27.4174C102.989 26.8251 103.296 26.0479 103.296 25.241C103.296 24.434 102.989 23.6568 102.438 23.0646C101.886 22.4724 101.13 22.1087 100.32 22.0463Z" fill="white"/>
</g>
<defs>
<clipPath id="clip0_43_10774">
<rect width="201" height="85" fill="white"/>
</clipPath>
</defs>
</svg>
