<svg width="193" height="61" viewBox="0 0 193 61" fill="none" xmlns="http://www.w3.org/2000/svg">
<g clip-path="url(#clip0_33_5604)">
<path d="M185.853 58.6172H7.1468C5.25332 58.6109 3.43921 57.8682 2.10031 56.5513C0.761401 55.2344 0.00638618 53.4501 0 51.5877V9.41142C0.00636576 7.54794 0.760993 5.76242 2.09956 4.44362C3.43812 3.12481 5.25221 2.37953 7.1468 2.37012H185.853C187.748 2.37953 189.562 3.12481 190.9 4.44362C192.239 5.76242 192.994 7.54794 193 9.41142V51.5877C192.994 53.4501 192.239 55.2344 190.9 56.5513C189.561 57.8682 187.747 58.6109 185.853 58.6172Z" fill="#12100B"/>
<path d="M185.853 3.50274C187.46 3.50274 189 4.13037 190.136 5.24755C191.272 6.36472 191.91 7.87992 191.91 9.45985V51.6362C191.91 53.2161 191.272 54.7313 190.136 55.8485C189 56.9656 187.46 57.5933 185.853 57.5933H7.1468C5.54049 57.5933 3.99997 56.9656 2.86413 55.8485C1.7283 54.7313 1.09019 53.2161 1.09019 51.6362V9.41218C1.09019 7.83226 1.7283 6.31706 2.86413 5.19988C3.99997 4.08271 5.54049 3.45507 7.1468 3.45507H185.853M185.853 2.32324H7.1468C5.25221 2.33266 3.43812 3.0779 2.09956 4.3967C0.760993 5.71551 0.00636576 7.50103 0 9.36451V51.5409C0.00638618 53.4032 0.761401 55.1876 2.10031 56.5045C3.43921 57.8214 5.25332 58.564 7.1468 58.5703H185.853C187.747 58.564 189.561 57.8214 190.9 56.5045C192.239 55.1876 192.994 53.4032 193 51.5409V9.41218C192.994 7.5487 192.239 5.76317 190.9 4.44437C189.562 3.12557 187.748 2.38029 185.853 2.37087V2.32324Z" fill="#B0ADAB"/>
<path d="M97.4126 27.0803C96.2147 27.0803 95.0438 27.4297 94.0478 28.0842C93.0518 28.7388 92.2755 29.6692 91.8171 30.7577C91.3586 31.8462 91.2387 33.044 91.4724 34.1995C91.7061 35.3551 92.2829 36.4166 93.13 37.2497C93.977 38.0828 95.0562 38.6502 96.231 38.88C97.4059 39.1099 98.6237 38.9919 99.7304 38.541C100.837 38.0901 101.783 37.3266 102.449 36.347C103.114 35.3673 103.469 34.2156 103.469 33.0374C103.477 32.2529 103.326 31.4747 103.025 30.7483C102.723 30.022 102.277 29.3621 101.713 28.8073C101.149 28.2526 100.478 27.8141 99.7399 27.5175C99.0015 27.221 98.2102 27.0723 97.4126 27.0803ZM97.4126 36.6831C96.6865 36.7237 95.9648 36.549 95.3407 36.1817C94.7167 35.8144 94.219 35.2713 93.9121 34.6228C93.6052 33.9743 93.5033 33.2502 93.6193 32.5441C93.7354 31.8379 94.0643 31.1823 94.5633 30.662C95.0623 30.1416 95.7086 29.7805 96.4186 29.6254C97.1285 29.4703 97.8695 29.5282 98.5456 29.7918C99.2217 30.0553 99.8018 30.5123 100.211 31.1037C100.62 31.6951 100.84 32.3936 100.841 33.1089C100.855 33.5652 100.778 34.0198 100.613 34.4467C100.449 34.8736 100.2 35.2643 99.8816 35.5964C99.563 35.9285 99.181 36.1955 98.7573 36.382C98.3336 36.5685 97.8766 36.6708 97.4126 36.6831ZM84.0881 27.0803C82.8902 27.0803 81.7192 27.4297 80.7232 28.0842C79.7272 28.7388 78.9509 29.6692 78.4925 30.7577C78.0341 31.8462 77.9142 33.044 78.1478 34.1995C78.3815 35.3551 78.9584 36.4166 79.8054 37.2497C80.6524 38.0828 81.7316 38.6502 82.9065 38.88C84.0814 39.1099 85.2991 38.9919 86.4058 38.541C87.5126 38.0901 88.4585 37.3266 89.124 36.347C89.7895 35.3673 90.1447 34.2156 90.1447 33.0374C90.1447 31.4595 89.5083 29.9461 88.375 28.8293C87.2418 27.7124 85.7044 27.0834 84.1002 27.0803H84.0881ZM84.0881 36.6831C83.362 36.7237 82.6402 36.549 82.0162 36.1817C81.3921 35.8144 80.8945 35.2713 80.5876 34.6228C80.2807 33.9743 80.1787 33.2502 80.2948 32.5441C80.4109 31.8379 80.7397 31.1823 81.2388 30.662C81.7378 30.1416 82.3841 29.7805 83.094 29.6254C83.804 29.4703 84.5449 29.5282 85.221 29.7918C85.8971 30.0553 86.4773 30.5123 86.8864 31.1037C87.2956 31.6951 87.515 32.3936 87.5161 33.1089C87.5323 33.5646 87.4566 34.019 87.2933 34.4458C87.1301 34.8726 86.8825 35.2634 86.565 35.5957C86.2474 35.928 85.8661 36.1951 85.4431 36.3818C85.0201 36.5684 84.5637 36.6708 84.1002 36.6831H84.0881ZM68.2319 28.915V31.4528H74.4096C74.3346 32.6323 73.8662 33.7545 73.0772 34.6458C72.4478 35.2733 71.691 35.7632 70.8561 36.0835C70.0212 36.4038 69.127 36.5472 68.2319 36.5044C66.4618 36.4313 64.7889 35.6882 63.5628 34.4304C62.3366 33.1727 61.652 31.4975 61.652 29.755C61.652 28.0125 62.3366 26.3374 63.5628 25.0796C64.7889 23.8219 66.4618 23.0788 68.2319 23.0056C69.9639 22.9857 71.6344 23.6361 72.8833 24.8166L74.7003 23.0294C73.8508 22.1991 72.8407 21.5446 71.7297 21.1046C70.6187 20.6647 69.4294 20.4482 68.2319 20.4679C66.9634 20.4232 65.6989 20.6303 64.5136 21.0769C63.3284 21.5235 62.2468 22.2004 61.3333 23.0672C60.4199 23.934 59.6934 24.973 59.1972 26.122C58.701 27.271 58.4453 28.5066 58.4453 29.755C58.4453 31.0034 58.701 32.239 59.1972 33.388C59.6934 34.5371 60.4199 35.576 61.3333 36.4428C62.2468 37.3096 63.3284 37.9865 64.5136 38.4331C65.6989 38.8797 66.9634 39.0868 68.2319 39.0421C69.4556 39.0924 70.6763 38.8857 71.8125 38.4358C72.9487 37.9859 73.9744 37.3031 74.8215 36.4329C76.3337 34.8138 77.1347 32.6728 77.0503 30.4758C77.0537 29.9448 77.0091 29.4145 76.9171 28.8912L68.2319 28.915ZM133.001 30.8928C132.638 29.8073 131.942 28.8586 131.01 28.1763C130.078 27.4939 128.954 27.1112 127.793 27.0803C127.014 27.0858 126.244 27.2461 125.53 27.5515C124.816 27.857 124.172 28.3013 123.637 28.8577C123.102 29.4141 122.686 30.0712 122.416 30.7894C122.146 31.5077 122.025 32.2723 122.063 33.0374C122.048 33.8237 122.195 34.6048 122.494 35.3342C122.793 36.0635 123.239 36.726 123.804 37.2821C124.369 37.8382 125.043 38.2764 125.784 38.5707C126.526 38.8649 127.32 39.009 128.12 38.9945C129.12 38.9992 130.106 38.7601 130.99 38.2986C131.873 37.837 132.627 37.1674 133.183 36.3495L131.112 34.9913C130.801 35.497 130.361 35.9145 129.837 36.2028C129.312 36.4911 128.721 36.6402 128.12 36.6355C127.501 36.6602 126.889 36.5005 126.363 36.1774C125.838 35.8543 125.424 35.3828 125.176 34.8245L133.304 31.5243L133.001 30.8928ZM124.716 32.8825C124.686 32.4473 124.746 32.0107 124.89 31.5983C125.034 31.1858 125.261 30.8059 125.556 30.4808C125.852 30.1556 126.211 29.8918 126.611 29.7048C127.012 29.5177 127.446 29.4113 127.889 29.3916C128.351 29.361 128.812 29.4657 129.213 29.6927C129.614 29.9196 129.937 30.2585 130.143 30.6664L124.716 32.8825ZM118.126 38.7205H120.803V21.0993H118.126V38.7205ZM113.753 28.4504H113.656C113.25 28.0179 112.755 27.6753 112.203 27.4452C111.652 27.2152 111.057 27.103 110.459 27.116C108.852 27.116 107.312 27.7436 106.176 28.8608C105.04 29.978 104.402 31.4932 104.402 33.0731C104.402 34.6531 105.04 36.1683 106.176 37.2854C107.312 38.4026 108.852 39.0302 110.459 39.0302C111.06 39.0474 111.658 38.9347 112.211 38.7C112.763 38.4654 113.257 38.1145 113.656 37.672H113.753V38.5298C113.753 40.8174 112.542 42.0445 110.507 42.0445C109.839 42.0284 109.19 41.817 108.645 41.4372C108.099 41.0574 107.68 40.5264 107.442 39.9119L105.117 40.865C105.548 41.923 106.293 42.8292 107.254 43.4664C108.215 44.1037 109.348 44.4426 110.507 44.4393C113.632 44.4393 116.285 42.6283 116.285 38.2082V27.4854H113.753V28.4504ZM110.689 36.7189C109.764 36.645 108.901 36.2314 108.272 35.5603C107.642 34.8892 107.293 34.0098 107.293 33.0969C107.293 32.1841 107.642 31.3047 108.272 30.6336C108.901 29.9625 109.764 29.5489 110.689 29.475C111.593 29.5772 112.427 30.0027 113.032 30.6706C113.638 31.3385 113.972 32.2021 113.972 33.0969C113.972 33.9918 113.638 34.8554 113.032 35.5233C112.427 36.1912 111.593 36.6167 110.689 36.7189ZM145.538 21.1351H139.155V38.7205H141.82V32.0604H145.538C146.29 32.0949 147.04 31.9792 147.745 31.7202C148.449 31.4613 149.093 31.0645 149.637 30.5538C150.181 30.0432 150.614 29.4293 150.909 28.7493C151.205 28.0693 151.358 27.3374 151.358 26.5978C151.358 25.8581 151.205 25.1261 150.909 24.4462C150.614 23.7662 150.181 23.1523 149.637 22.6416C149.093 22.131 148.449 21.7342 147.745 21.4752C147.04 21.2163 146.29 21.1006 145.538 21.1351ZM145.611 29.6061H141.82V23.5894H145.611C146.029 23.5635 146.448 23.6221 146.842 23.7616C147.236 23.9011 147.596 24.1185 147.902 24.4004C148.207 24.6823 148.45 25.0227 148.616 25.4006C148.783 25.7785 148.868 26.186 148.868 26.5978C148.868 27.0096 148.783 27.417 148.616 27.7949C148.45 28.1728 148.207 28.5132 147.902 28.7951C147.596 29.077 147.236 29.2944 146.842 29.4339C146.448 29.5733 146.029 29.632 145.611 29.6061ZM162.097 27.0922C161.125 27.0375 160.158 27.2617 159.312 27.7376C158.467 28.2135 157.781 28.9205 157.337 29.7729L159.759 30.7498C159.992 30.3263 160.345 29.9788 160.775 29.7502C161.206 29.5215 161.695 29.4218 162.182 29.4631C162.517 29.4303 162.855 29.4628 163.177 29.5589C163.5 29.655 163.799 29.8127 164.059 30.0231C164.319 30.2334 164.535 30.4922 164.693 30.7846C164.851 31.077 164.948 31.3972 164.98 31.7268V31.9055C164.127 31.457 163.174 31.2237 162.206 31.2264C159.65 31.2264 157.058 32.6085 157.058 35.1819C157.081 35.7258 157.215 36.2596 157.452 36.7514C157.689 37.2432 158.025 37.6829 158.439 38.0444C158.852 38.4058 159.336 38.6815 159.861 38.855C160.385 39.0284 160.94 39.0961 161.492 39.0541C162.164 39.0917 162.835 38.9514 163.433 38.6475C164.032 38.3437 164.537 37.8875 164.895 37.3265H164.98V38.6847H167.56V31.9532C167.56 28.7959 165.138 27.0564 162.097 27.0564V27.0922ZM161.782 36.7189C160.898 36.7189 159.687 36.29 159.687 35.2296C159.687 33.8714 161.201 33.3471 162.509 33.3471C163.357 33.3242 164.195 33.5302 164.932 33.9428C164.827 34.6949 164.452 35.385 163.874 35.8879C163.296 36.3908 162.554 36.673 161.782 36.6831V36.7189ZM176.9 27.4734L173.847 35.0985H173.75L170.577 27.4734H167.706L172.466 38.1247L169.753 44.0819H172.539L179.807 27.5092L176.9 27.4734ZM152.879 38.7205H155.544V21.0993H152.879V38.7205Z" fill="white"/>
<path d="M14.9378 12.9859C14.463 13.5351 14.2241 14.2444 14.2715 14.9637V46.036C14.2248 46.7516 14.4638 47.4569 14.9378 48.0018L15.0347 48.109L32.7321 30.7024V30.2973L15.0226 12.8906L14.9257 12.9859" fill="#70C9F3"/>
<mask id="mask0_33_5604" style="mask-type:luminance" maskUnits="userSpaceOnUse" x="32" y="24" width="16" height="13">
<path d="M38.6179 36.5049L32.7188 30.7026V30.2975L38.6179 24.4834L45.7526 28.4747C47.7392 29.5827 47.7392 31.4056 45.7526 32.5255L38.7511 36.4334L38.6179 36.5049Z" fill="white"/>
</mask>
<g mask="url(#mask0_33_5604)">
<path d="M47.7391 24.4951H32.7188V36.5166H47.7391V24.4951Z" fill="url(#paint0_linear_33_5604)"/>
</g>
<mask id="mask1_33_5604" style="mask-type:luminance" maskUnits="userSpaceOnUse" x="14" y="30" width="25" height="19">
<path d="M38.7521 36.4337L32.6955 30.4766L14.9375 48.0024C15.3422 48.3582 15.8612 48.5627 16.4038 48.5801C16.9463 48.5975 17.4778 48.4268 17.9052 48.0977L38.7642 36.4337" fill="white"/>
</mask>
<g mask="url(#mask1_33_5604)">
<path d="M26.8172 18.8027L5.60938 39.6621L26.8171 60.5215L48.0249 39.6621L26.8172 18.8027Z" fill="url(#paint1_linear_33_5604)"/>
</g>
<mask id="mask2_33_5604" style="mask-type:luminance" maskUnits="userSpaceOnUse" x="14" y="12" width="25" height="19">
<path d="M38.7486 24.567L17.8896 12.9029C17.4617 12.5767 16.9318 12.4066 16.3906 12.4218C15.8493 12.437 15.3302 12.6366 14.9219 12.9864L32.7162 30.5003L38.7728 24.5432" fill="white"/>
</mask>
<g mask="url(#mask2_33_5604)">
<path d="M26.8484 0.494149L5.64062 21.3535L26.8484 42.2129L48.0562 21.3535L26.8484 0.494149Z" fill="url(#paint2_linear_33_5604)"/>
</g>
</g>
<defs>
<linearGradient id="paint0_linear_33_5604" x1="43.9557" y1="32.1605" x2="9.39377" y2="32.1605" gradientUnits="userSpaceOnUse">
<stop stop-color="#FFE000"/>
<stop offset="0.41" stop-color="#FABD00"/>
<stop offset="0.78" stop-color="#F6A300"/>
<stop offset="1" stop-color="#F59A00"/>
</linearGradient>
<linearGradient id="paint1_linear_33_5604" x1="35.1752" y1="32.9605" x2="3.20916" y2="65.4605" gradientUnits="userSpaceOnUse">
<stop stop-color="#E7383D"/>
<stop offset="1" stop-color="#C81166"/>
</linearGradient>
<linearGradient id="paint2_linear_33_5604" x1="3.26956" y1="-4.08969" x2="29.3712" y2="22.4479" gradientUnits="userSpaceOnUse">
<stop stop-color="#229966"/>
<stop offset="0.15" stop-color="#33A064"/>
<stop offset="0.52" stop-color="#5BAF5E"/>
<stop offset="0.82" stop-color="#73B95B"/>
<stop offset="1" stop-color="#7CBC5A"/>
</linearGradient>
<clipPath id="clip0_33_5604">
<rect width="193" height="60" fill="white" transform="translate(0 0.5)"/>
</clipPath>
</defs>
</svg>
