<svg width="77" height="16" viewBox="0 0 77 16" fill="none" xmlns="http://www.w3.org/2000/svg">
<path d="M62.797 9.21564C62.793 8.81986 62.8695 8.42741 63.022 8.06215C63.1666 7.71954 63.3761 7.4081 63.639 7.14507C63.9123 6.89119 64.234 6.69503 64.5848 6.56833C64.9656 6.42191 65.3707 6.34948 65.7786 6.35494C66.196 6.34807 66.6109 6.42048 67.0012 6.56833C67.3521 6.69503 67.6738 6.89119 67.947 7.14507C68.2016 7.40678 68.3982 7.71931 68.5238 8.06215C68.6649 8.43015 68.7354 8.8215 68.7314 9.21564C68.7372 9.61101 68.6627 10.0034 68.5122 10.3691C68.3689 10.7121 68.1569 11.0222 67.8894 11.2804C67.6109 11.5303 67.2882 11.7259 66.9378 11.8571C66.555 12.0034 66.148 12.0758 65.7383 12.0705C65.3209 12.0774 64.906 12.0049 64.5156 11.8571C64.1692 11.7285 63.8516 11.5324 63.5814 11.2804C63.3273 11.0204 63.1308 10.71 63.0047 10.3691C62.8635 10.0011 62.793 9.60977 62.797 9.21564ZM64.4061 8.96183C64.3761 9.60912 64.509 10.2536 64.7925 10.8362C64.8918 11.0469 65.0494 11.2246 65.2467 11.3483C65.444 11.472 65.6726 11.5365 65.9055 11.5341C66.1017 11.5495 66.298 11.5062 66.4695 11.4096C66.641 11.3131 66.7799 11.1677 66.8686 10.992C67.0845 10.5146 67.1833 9.99262 67.157 9.46937C67.1841 8.82353 67.0493 8.18116 66.7648 7.60072C66.6674 7.3873 66.5107 7.20641 66.3134 7.0796C66.116 6.95279 65.8863 6.88543 65.6517 6.88557C65.4527 6.87436 65.2549 6.92335 65.0841 7.02623C64.9134 7.12911 64.7775 7.2811 64.6944 7.46231C64.4817 7.93253 64.3829 8.44627 64.4061 8.96183Z" fill="#409587"/>
<path d="M75.5055 11.1647C75.5036 11.2207 75.5172 11.2761 75.5446 11.3249C75.5721 11.3738 75.6124 11.4141 75.6613 11.4415C75.8418 11.5296 76.0376 11.5825 76.238 11.5973C76.2727 11.6078 76.3057 11.6233 76.336 11.6434C76.3516 11.6591 76.3633 11.6782 76.3703 11.6992C76.3773 11.7202 76.3794 11.7425 76.3764 11.7645C76.3797 11.8086 76.3797 11.8529 76.3764 11.8971V12.0067L75.7132 11.9606C75.494 11.9606 75.2172 11.9606 74.8827 11.9606C74.6097 11.9606 74.356 11.9606 74.1214 11.9606L73.4294 12.0067C73.4193 11.9263 73.4193 11.8449 73.4294 11.7645C73.4262 11.7241 73.4388 11.684 73.4646 11.6527C73.4905 11.6215 73.5275 11.6016 73.5678 11.5973C73.7265 11.579 73.8797 11.5279 74.0176 11.4473C74.0575 11.4124 74.0887 11.3687 74.1088 11.3197C74.1288 11.2706 74.1371 11.2175 74.133 11.1647V8.68467C74.1616 8.32852 74.098 7.97099 73.9484 7.64651C73.8848 7.55335 73.7984 7.47801 73.6975 7.42755C73.5966 7.37709 73.4844 7.35317 73.3717 7.35814C73.1904 7.3549 73.0103 7.38794 72.8419 7.45529C72.6736 7.52264 72.5204 7.62296 72.3913 7.75035C72.247 7.90382 72.1361 8.0856 72.0656 8.28415C71.9951 8.4827 71.9666 8.6937 71.9818 8.90384V11.2108C71.9777 11.2636 71.986 11.3167 72.0061 11.3658C72.0261 11.4148 72.0573 11.4585 72.0972 11.4934C72.2334 11.5733 72.3845 11.6243 72.5413 11.6434C72.5816 11.6477 72.6186 11.6677 72.6444 11.6989C72.6703 11.7302 72.6829 11.7702 72.6797 11.8106C72.6928 11.8909 72.6928 11.9726 72.6797 12.0528L71.9934 12.0067C71.7512 12.0067 71.4974 12.0067 71.2264 12.0067C70.9553 12.0067 70.6151 12.0067 70.3901 12.0067L69.7385 12.0528C69.7352 12.0164 69.7352 11.9797 69.7385 11.9433C69.7385 11.9087 69.7385 11.8626 69.7385 11.8106C69.7366 11.7883 69.7398 11.7658 69.7478 11.7448C69.7557 11.7239 69.7683 11.7049 69.7846 11.6895C69.8143 11.6684 69.8475 11.6528 69.8826 11.6434C70.0816 11.6175 70.2758 11.5631 70.4593 11.4819C70.5071 11.4523 70.5462 11.4105 70.5726 11.3608C70.5989 11.3112 70.6116 11.2554 70.6093 11.1993V7.83688C70.6192 7.63535 70.5712 7.4352 70.4709 7.26013C70.3967 7.18207 70.3072 7.12026 70.2079 7.07856C70.1087 7.03687 70.0018 7.01618 69.8942 7.01788C69.8462 7.01208 69.8024 6.98768 69.7722 6.94994C69.742 6.91219 69.7278 6.86412 69.7327 6.81603V6.71796C69.7245 6.68189 69.7245 6.64448 69.7327 6.60841H69.9576H70.269H70.5978H70.9034C71.1087 6.586 71.3127 6.55325 71.5147 6.51034C71.6449 6.47578 71.7782 6.45453 71.9126 6.44691C72.0453 6.44691 72.1145 6.51032 72.1145 6.63721C72.1116 6.7609 72.1001 6.88425 72.0799 7.00633C72.0479 7.21621 72.0344 7.42849 72.0395 7.64073C72.2893 7.30244 72.5956 7.00977 72.945 6.77562C73.2483 6.5649 73.608 6.45038 73.9773 6.44691C74.1995 6.43461 74.422 6.46651 74.6319 6.54075C74.8417 6.615 75.0348 6.73013 75.1999 6.87946C75.3584 7.05407 75.4796 7.25924 75.556 7.4824C75.6324 7.70555 75.6623 7.94199 75.644 8.17714L75.5055 11.1647Z" fill="#409587"/>
<path d="M24.3969 3.90379C24.4318 3.82764 24.4905 3.76489 24.5641 3.725C24.7505 3.66679 24.9463 3.64522 25.1408 3.66153H25.4407H25.8675H26.3289H26.721C26.729 3.70345 26.729 3.74651 26.721 3.78843V3.89224C26.721 4.02489 26.6749 4.10562 26.5768 4.13446C26.4426 4.15021 26.3097 4.17526 26.1789 4.20944C26.0991 4.22669 26.0229 4.25795 25.954 4.30174C25.9063 4.33643 25.8701 4.38465 25.8502 4.44015C25.8402 4.49933 25.8402 4.55977 25.8502 4.61894C25.8502 4.61894 25.8502 4.79198 25.8502 5.09765C25.8502 5.40332 25.8848 5.78397 25.9079 6.25114C25.9309 6.7183 25.9598 7.19118 25.9886 7.71602C26.0174 8.24085 26.0347 8.74268 26.0636 9.21561C26.0924 9.68854 26.1097 10.098 26.127 10.4441C26.1443 10.7901 26.1558 11.0208 26.1616 11.0785C26.1596 11.1512 26.1713 11.2236 26.1962 11.2919C26.2189 11.3507 26.2592 11.401 26.3116 11.4361C26.381 11.4901 26.4619 11.5276 26.548 11.5456C26.6767 11.5816 26.8077 11.6086 26.9402 11.6264C27.0324 11.6264 27.0843 11.7244 27.0843 11.8686C27.0913 11.9415 27.0913 12.0149 27.0843 12.0878L26.277 12.0416C26.0347 12.0416 25.7579 12.0416 25.4523 12.0416H24.5584C24.2354 12.0416 23.9817 12.0416 23.7567 12.0878C23.7494 12.0149 23.7494 11.9415 23.7567 11.8686C23.7508 11.8018 23.767 11.7349 23.8029 11.6782C23.8121 11.6645 23.824 11.6529 23.8379 11.644C23.8518 11.635 23.8673 11.629 23.8836 11.6264C24.1208 11.6061 24.3509 11.5353 24.5584 11.4187C24.6119 11.3728 24.6539 11.315 24.6809 11.2498C24.7079 11.1847 24.7193 11.1142 24.7141 11.0438C24.7141 11.0438 24.7141 10.8824 24.7141 10.6344C24.7141 10.3864 24.7141 10.0577 24.6795 9.71737C24.6449 9.37709 24.6506 8.95604 24.6276 8.53502C24.6045 8.114 24.5872 7.7103 24.5641 7.33542C24.5411 6.96053 24.5238 6.63753 24.5122 6.36646C24.5007 6.09539 24.5122 5.92814 24.5122 5.87047L21.8997 11.9494L21.7902 12.1223C21.7753 12.1397 21.7566 12.1533 21.7356 12.1623C21.7146 12.1713 21.6919 12.1754 21.669 12.1743H21.5941C21.5676 12.1811 21.5398 12.1811 21.5133 12.1743L18.5606 5.09188C18.5606 5.20146 18.5606 5.42637 18.526 5.76088C18.4914 6.09539 18.526 6.48185 18.4741 6.91441C18.4222 7.34696 18.4337 7.80259 18.4106 8.28129C18.3876 8.75998 18.3703 9.20404 18.353 9.61353C18.3357 10.023 18.353 10.3633 18.3126 10.6401C18.2722 10.917 18.3126 11.067 18.3126 11.09C18.3026 11.1569 18.3026 11.225 18.3126 11.2919C18.3322 11.3476 18.366 11.3973 18.4106 11.4361C18.4791 11.4883 18.5576 11.5256 18.6413 11.5456C18.7798 11.5843 18.9204 11.6151 19.0623 11.6379C19.1546 11.6379 19.2007 11.7187 19.2007 11.8802C19.2033 11.9128 19.2033 11.9455 19.2007 11.9782C19.2035 12.0185 19.2035 12.059 19.2007 12.0993L18.5664 12.0531H17.9896H17.3495L16.6632 12.0993C16.6539 12.0614 16.6539 12.0218 16.6632 11.9839V11.8802C16.6575 11.8166 16.6695 11.7527 16.6978 11.6956C16.7268 11.6676 16.7626 11.6477 16.8016 11.6379C17.0039 11.6039 17.199 11.5356 17.3783 11.4361C17.4381 11.3992 17.4882 11.3486 17.5243 11.2884C17.5605 11.2281 17.5816 11.1601 17.586 11.09C17.586 11.0266 17.586 10.8189 17.586 10.4729C17.586 10.1268 17.6263 9.72311 17.6494 9.25018C17.6725 8.77725 17.7013 8.28126 17.7244 7.75066C17.7474 7.22005 17.7763 6.72408 17.7993 6.26846C17.8224 5.81283 17.8339 5.43214 17.8455 5.11493C17.857 4.79772 17.8455 4.64776 17.8455 4.63623C17.8516 4.57532 17.8415 4.5139 17.8162 4.45818C17.7909 4.40245 17.7512 4.35442 17.7013 4.31902C17.5101 4.22468 17.3026 4.16792 17.09 4.15178C16.9977 4.15178 16.9516 4.07101 16.9516 3.90952V3.80571C16.9436 3.76379 16.9436 3.72077 16.9516 3.67885H17.4072H17.9839H18.5606H18.947C19.0641 3.67125 19.1816 3.67125 19.2988 3.67885C19.3693 3.6878 19.4388 3.70326 19.5064 3.725C19.5505 3.73649 19.5893 3.763 19.616 3.79998L19.6736 3.90379L22.0439 9.62507L24.3969 3.90379Z" fill="white"/>
<path d="M32.6503 10.7725C32.7049 10.7193 32.7762 10.6866 32.8522 10.6802C32.9046 10.6859 32.9545 10.7059 32.9964 10.7379C33.0704 10.7987 33.1296 10.8756 33.1694 10.9628C32.8572 11.3353 32.4622 11.6296 32.016 11.8221C31.5322 12.0153 31.0141 12.1076 30.4934 12.0933C30.1624 12.0932 29.8334 12.0406 29.5188 11.9375C29.1924 11.8294 28.8923 11.6538 28.638 11.4223C28.3837 11.1908 28.1808 10.9086 28.0424 10.5938C27.8741 10.2087 27.7933 9.79104 27.806 9.37099C27.8002 8.93308 27.8928 8.49949 28.077 8.10218C28.248 7.74069 28.4846 7.41408 28.7748 7.13899C29.0422 6.89173 29.3531 6.69618 29.6918 6.56225C29.9939 6.42992 30.3194 6.35934 30.6492 6.35463C30.9926 6.33012 31.3372 6.38093 31.6589 6.50346C31.9807 6.62599 32.2718 6.81728 32.5119 7.06401C32.955 7.61417 33.1807 8.30784 33.1463 9.01341C33.1483 9.02598 33.1473 9.03884 33.1433 9.05093C33.1394 9.06303 33.1326 9.07404 33.1236 9.08304C33.1146 9.09203 33.1036 9.09881 33.0916 9.10275C33.0795 9.10669 33.0666 9.10768 33.054 9.10571L29.4092 9.25567C29.3727 9.79974 29.53 10.3392 29.8533 10.7783C30.0215 10.9624 30.2293 11.1059 30.4611 11.1978C30.6929 11.2897 30.9426 11.3278 31.1913 11.3089C31.4541 11.3094 31.7152 11.2665 31.964 11.182C32.2175 11.0919 32.4507 10.9528 32.6503 10.7725ZM30.4761 6.88526C30.3179 6.88167 30.1615 6.9191 30.022 6.99389C29.8826 7.06868 29.7648 7.17827 29.6803 7.31204C29.4535 7.72179 29.3513 8.18881 29.3862 8.65583L31.3585 8.5636C31.4854 8.5636 31.5488 8.50014 31.5488 8.4021C31.5495 8.229 31.5281 8.05652 31.4854 7.88879C31.4479 7.71557 31.3816 7.54988 31.2893 7.39857C31.203 7.25482 31.0894 7.1294 30.9548 7.02945C30.8152 6.93046 30.6471 6.87982 30.4761 6.88526Z" fill="white"/>
<path d="M39.6915 7.57189C39.9566 7.224 40.2714 6.917 40.6258 6.66066C40.9172 6.44713 41.2681 6.33018 41.6293 6.32617C42.6904 6.32617 43.221 6.90292 43.221 8.0564V11.1651C43.2189 11.2203 43.2323 11.275 43.2599 11.323C43.2874 11.3709 43.3279 11.4101 43.3767 11.4361C43.5599 11.5182 43.7543 11.5726 43.9534 11.5976C43.9937 11.602 44.0307 11.6219 44.0566 11.6531C44.0824 11.6843 44.0951 11.7244 44.0918 11.7648V11.8918C44.1011 11.9297 44.1011 11.9692 44.0918 12.0071L43.4401 11.961C43.221 11.961 42.9442 11.961 42.6097 11.961C42.3329 11.961 42.0733 11.961 41.8427 11.961L41.1448 12.0071C41.1368 11.9265 41.1368 11.8454 41.1448 11.7648C41.1415 11.7424 41.144 11.7195 41.1521 11.6983C41.1602 11.6771 41.1736 11.6583 41.191 11.6437C41.2186 11.6227 41.2499 11.6071 41.2833 11.5976C41.4439 11.5801 41.5992 11.529 41.7389 11.4477C41.776 11.4112 41.8046 11.3668 41.8225 11.318C41.8405 11.2691 41.8473 11.2169 41.8427 11.1651V8.68503C41.8677 8.33271 41.8186 7.97903 41.6985 7.64687C41.6445 7.55262 41.5649 7.47555 41.469 7.42453C41.3731 7.37352 41.2647 7.35062 41.1564 7.3585C40.9768 7.3555 40.7985 7.3887 40.6321 7.45607C40.4656 7.52345 40.3144 7.62366 40.1875 7.75071C40.0468 7.906 39.9395 8.08845 39.872 8.28683C39.8046 8.48522 39.7785 8.69534 39.7953 8.9042V11.2112C39.7898 11.2641 39.7974 11.3177 39.8175 11.367C39.8377 11.4163 39.8697 11.4598 39.9107 11.4938C40.0469 11.5736 40.198 11.6247 40.3548 11.6437C40.3951 11.6481 40.4321 11.668 40.4579 11.6993C40.4838 11.7305 40.4964 11.7706 40.4932 11.811V11.9379C40.5025 11.9758 40.5025 12.0153 40.4932 12.0532L39.8819 12.0071C39.6742 12.0071 39.4378 12.0071 39.1667 12.0071C38.8957 12.0071 38.6304 12.0071 38.3939 12.0071L37.7019 12.0532C37.6941 11.9726 37.6941 11.8916 37.7019 11.811C37.7 11.7887 37.7032 11.7661 37.7112 11.7452C37.7192 11.7242 37.7318 11.7053 37.748 11.6898C37.7777 11.6687 37.8109 11.6531 37.8461 11.6437C38.0054 11.6281 38.1591 11.5769 38.2959 11.4938C38.3348 11.4583 38.3649 11.4144 38.3839 11.3654C38.4029 11.3163 38.4103 11.2635 38.4055 11.2112V8.68503C38.4274 8.33282 38.3784 7.97977 38.2613 7.64687C38.2073 7.55262 38.1277 7.47555 38.0318 7.42453C37.9359 7.37352 37.8275 7.35062 37.7192 7.3585C37.5395 7.35416 37.3608 7.38672 37.1941 7.45417C37.0275 7.52163 36.8764 7.62258 36.7503 7.75071C36.6089 7.90572 36.5007 8.08798 36.4322 8.28634C36.3638 8.4847 36.3366 8.69496 36.3524 8.9042V11.2112C36.3483 11.264 36.3566 11.3171 36.3766 11.3661C36.3966 11.4152 36.4278 11.4589 36.4677 11.4938C36.6057 11.5744 36.7589 11.6254 36.9176 11.6437C36.9579 11.6481 36.9949 11.668 37.0207 11.6993C37.0466 11.7305 37.0592 11.7706 37.056 11.811V11.9379C37.0561 11.9781 37.0462 12.0177 37.0271 12.0532L36.3409 12.0071C36.1044 12.0071 35.8507 12.0071 35.5738 12.0071C35.297 12.0071 34.9683 12.0071 34.7434 12.0071L34.0859 12.0532C34.0779 11.9727 34.0779 11.8916 34.0859 11.811C34.0829 11.7891 34.085 11.7667 34.092 11.7457C34.099 11.7247 34.1107 11.7056 34.1263 11.6898C34.156 11.6687 34.1892 11.6531 34.2243 11.6437C34.4233 11.6178 34.6175 11.5634 34.801 11.4822C34.8508 11.4543 34.8917 11.4131 34.9192 11.3632C34.9467 11.3132 34.9597 11.2566 34.9568 11.1996V7.83724C34.9677 7.63487 34.9174 7.43391 34.8126 7.26049C34.7384 7.18243 34.6489 7.12062 34.5496 7.07892C34.4504 7.03723 34.3435 7.01654 34.2359 7.01824C34.2116 7.01607 34.188 7.00909 34.1664 6.99775C34.1448 6.98641 34.1257 6.97097 34.1102 6.9522C34.0946 6.93343 34.083 6.91172 34.0758 6.88841C34.0687 6.86511 34.0662 6.84065 34.0686 6.81639V6.71832C34.0605 6.68225 34.0605 6.64484 34.0686 6.60877H34.2935H34.605H34.9395H35.2451C35.4527 6.60877 35.6603 6.55107 35.8564 6.5107C35.9846 6.47629 36.1161 6.45504 36.2486 6.44727C36.387 6.44727 36.4562 6.51068 36.4562 6.63757C36.4509 6.76136 36.4374 6.88467 36.4158 7.00669C36.3867 7.21688 36.3733 7.42892 36.3755 7.64109C36.6247 7.30433 36.9289 7.01188 37.2751 6.77598C37.5673 6.56895 37.9148 6.45446 38.2728 6.44727C38.6044 6.43551 38.9293 6.54221 39.1893 6.74831C39.4492 6.95441 39.6273 7.24639 39.6915 7.57189Z" fill="white"/>
<path d="M44.7892 9.21564C44.7861 8.82051 44.8606 8.42862 45.0083 8.06215C45.1529 7.71813 45.3647 7.40633 45.6312 7.14507C45.9024 6.89134 46.2221 6.69515 46.5712 6.56833C46.9539 6.422 47.361 6.3496 47.7707 6.35494C48.1881 6.34807 48.603 6.42048 48.9934 6.56833C49.3424 6.69515 49.6622 6.89134 49.9334 7.14507C50.1984 7.40402 50.4049 7.71675 50.5389 8.06215C50.6849 8.42897 50.7574 8.82088 50.7523 9.21564C50.7563 9.61141 50.6798 10.0039 50.5274 10.3691C50.384 10.7121 50.1721 11.0222 49.9046 11.2804C49.6278 11.5326 49.3046 11.7285 48.953 11.8571C48.5723 12.0035 48.1671 12.0759 47.7592 12.0705C47.3418 12.0774 46.9269 12.0049 46.5366 11.8571C46.1877 11.7298 45.868 11.5337 45.5965 11.2804C45.3443 11.019 45.1481 10.7089 45.0198 10.3691C44.8708 10.0027 44.7925 9.61125 44.7892 9.21564ZM46.3924 8.96183C46.364 9.60963 46.4989 10.2542 46.7846 10.8362C46.8827 11.0478 47.0401 11.2263 47.2377 11.3502C47.4352 11.4741 47.6645 11.5379 47.8976 11.5341C48.0937 11.5487 48.2897 11.5051 48.4611 11.4086C48.6324 11.3122 48.7715 11.1672 48.8607 10.992C49.0744 10.5141 49.1712 9.99214 49.1433 9.46937C49.1732 8.8233 49.0382 8.18026 48.7511 7.60072C48.6548 7.38775 48.4991 7.20706 48.3027 7.08023C48.1064 6.95341 47.8776 6.88582 47.6439 6.88557C47.444 6.87397 47.2453 6.92274 47.0735 7.0256C46.9017 7.12846 46.7649 7.28064 46.6808 7.46231C46.4707 7.93336 46.372 8.44647 46.3924 8.96183Z" fill="white"/>
<path d="M55.6376 6.33734C55.7417 6.32597 55.8471 6.33703 55.9466 6.36987C56.0461 6.4027 56.1374 6.45651 56.2143 6.52764C56.2765 6.59147 56.3251 6.66742 56.3568 6.75075C56.3885 6.83408 56.4028 6.923 56.3988 7.01209C56.4021 7.06371 56.3921 7.1153 56.37 7.16204C56.3353 7.21988 56.288 7.26916 56.2316 7.30623C56.1358 7.37082 56.0356 7.42867 55.9317 7.47928L55.4357 7.70999C55.3267 7.59685 55.1977 7.50488 55.0551 7.43887C54.8513 7.35853 54.6246 7.35853 54.4207 7.43887C54.3172 7.47798 54.2271 7.5461 54.1612 7.63501C54.0738 7.74977 54.011 7.88127 53.9767 8.02139C53.9201 8.22596 53.8948 8.43789 53.9017 8.65002V11.0147C53.8972 11.0912 53.9143 11.1674 53.951 11.2347C53.9877 11.302 54.0425 11.3577 54.1093 11.3953C54.3626 11.5119 54.6335 11.586 54.9109 11.6145C54.9512 11.6189 54.9882 11.6388 55.0141 11.67C55.0399 11.7013 55.0526 11.7414 55.0493 11.7818C55.0625 11.862 55.0625 11.9438 55.0493 12.024C54.9398 12.024 54.8013 12.024 54.6399 12.024H54.1324H53.6018H53.1347C52.8117 12.024 52.558 12.024 52.31 12.024L51.6583 12.0701C51.6452 11.9899 51.6452 11.9081 51.6583 11.8279C51.655 11.7875 51.6677 11.7474 51.6935 11.7162C51.7194 11.6849 51.7564 11.665 51.7967 11.6607C51.9959 11.6357 52.1902 11.5812 52.3734 11.4992C52.4231 11.4713 52.4641 11.4301 52.4916 11.3801C52.5191 11.3302 52.5321 11.2735 52.5291 11.2166V7.79068C52.5346 7.62616 52.4968 7.46311 52.4195 7.31778C52.3465 7.19474 52.1543 7.11397 51.8428 7.07552C51.8184 7.07557 51.7941 7.07064 51.7716 7.06095C51.7492 7.05125 51.7289 7.03704 51.7122 7.0192C51.6954 7.00135 51.6825 6.98021 51.6742 6.95717C51.6659 6.93413 51.6625 6.90965 51.664 6.88522V6.78137C51.655 6.74736 51.655 6.71161 51.664 6.6776H51.8774H52.1831H52.5176C52.6143 6.66901 52.7106 6.65549 52.8059 6.63719C52.9963 6.63719 53.1866 6.57956 53.3826 6.54496C53.5153 6.5142 53.6504 6.49485 53.7863 6.48723C53.9017 6.48723 53.9594 6.55072 53.9594 6.6776V7.36389C54.2052 7.08444 54.4932 6.84511 54.8129 6.65451C55.0595 6.48629 55.3418 6.37774 55.6376 6.33734Z" fill="white"/>
<path d="M59.9992 10.0808C60.201 9.58482 60.374 9.16378 60.5124 8.83504C60.6508 8.50629 60.7662 8.25827 60.8527 8.01603C60.9392 7.7738 60.9969 7.64115 61.0372 7.51427C61.0729 7.41419 61.0924 7.3091 61.0949 7.20288C61.0949 7.03562 60.9565 6.91451 60.6854 6.8453C60.6399 6.83417 60.5969 6.81455 60.5586 6.78757C60.5586 6.78757 60.524 6.72414 60.524 6.65493C60.5192 6.62242 60.5192 6.58944 60.524 6.55693C60.524 6.52232 60.524 6.4819 60.524 6.43576C60.8642 6.4646 61.2333 6.47617 61.6312 6.47617C62.0292 6.47617 62.3175 6.47613 62.6116 6.43576C62.6293 6.48214 62.641 6.5306 62.6462 6.57995C62.6481 6.6126 62.6481 6.64536 62.6462 6.67802C62.6462 6.77607 62.5943 6.8337 62.479 6.85677L62.1964 6.93175C62.127 6.94658 62.063 6.98056 62.0119 7.02983C61.9566 7.08323 61.9082 7.14325 61.8677 7.20858C61.8273 7.28356 61.7754 7.38161 61.7177 7.5085L59.0418 13.7662C58.884 14.17 58.593 14.5077 58.2171 14.7236C57.8616 14.9102 57.4652 15.0054 57.0637 15.0004C57.0328 15.0043 57.0013 15.0006 56.9722 14.9895C56.943 14.9785 56.917 14.9604 56.8965 14.937C56.8628 14.8987 56.8443 14.8495 56.8446 14.7985C56.8378 14.5418 56.8911 14.2871 57.0003 14.0546C57.0983 13.847 57.2194 13.7431 57.3521 13.7431C57.4209 13.7336 57.4908 13.7336 57.5597 13.7431C57.6439 13.7543 57.7292 13.7543 57.8134 13.7431C57.9908 13.7567 58.1676 13.7099 58.3152 13.6105C58.4494 13.4957 58.5526 13.3489 58.615 13.1837L59.1918 11.8111L57.2367 7.46238C57.179 7.3355 57.1271 7.23744 57.0868 7.16247C57.0501 7.09784 57.0033 7.03949 56.9484 6.98948C56.896 6.94641 56.835 6.91493 56.7696 6.89719C56.6807 6.86853 56.5902 6.84542 56.4985 6.82798C56.4491 6.81818 56.4052 6.79024 56.3753 6.74969C56.3454 6.70914 56.3318 6.65891 56.337 6.60881C56.3406 6.53472 56.3522 6.46124 56.3717 6.38965C56.5793 6.38965 56.7927 6.41845 57.0233 6.42422H58.6554L59.3186 6.38965C59.3381 6.46124 59.3497 6.53472 59.3532 6.60881C59.3556 6.632 59.3533 6.6554 59.3464 6.67767C59.3395 6.69993 59.3281 6.72058 59.313 6.73836C59.298 6.75613 59.2795 6.77072 59.2586 6.78116C59.2378 6.7916 59.215 6.79768 59.1918 6.79911C59.0545 6.80579 58.9205 6.84327 58.7996 6.90873C58.7743 6.92988 58.7539 6.95634 58.74 6.98625C58.726 7.01615 58.7188 7.04872 58.7189 7.08171C58.7276 7.17266 58.749 7.26199 58.7823 7.34706C58.861 7.58378 58.9554 7.81496 59.0649 8.03913L59.9992 10.0808Z" fill="white"/>
<path d="M5.94087 2.42713C6.15583 2.81369 6.34839 3.21227 6.51757 3.62096C6.46654 3.17866 6.43959 2.73391 6.43684 2.28868C6.40449 1.76289 6.55305 1.24187 6.85783 0.812217C6.20615 -0.548898 4.96046 -0.133644 5.20268 1.56775C5.50652 1.79901 5.75807 2.09188 5.94087 2.42713Z" fill="white"/>
<path d="M3.56689 3.94424C3.95139 4.17144 4.32297 4.41981 4.67993 4.68822C4.41322 4.32931 4.16678 3.95576 3.94175 3.56934C3.64736 3.13227 3.51665 2.60532 3.57265 2.08133C2.32696 1.22775 1.45613 2.21398 2.51151 3.56357C2.88517 3.61879 3.244 3.74823 3.56689 3.94424Z" fill="white"/>
<path d="M1.18986 6.64271C1.53873 6.49865 1.91408 6.42987 2.29137 6.44086C2.73656 6.44378 3.18128 6.47074 3.62357 6.52161C3.21251 6.35359 2.81194 6.161 2.42401 5.94487C1.95277 5.71252 1.57745 5.32291 1.36287 4.8433C-0.142345 4.70488 -0.401861 5.99675 1.18986 6.64271Z" fill="white"/>
<path d="M2.42119 9.26173C2.77875 9.05987 3.18821 8.85801 3.62074 8.68499C3.17854 8.73763 2.73383 8.76652 2.28854 8.77151C1.7621 8.80219 1.24105 8.65156 0.812168 8.34473C-0.548865 8.99645 -0.133636 10.2422 1.56766 9.99998C1.7981 9.69756 2.08872 9.44618 2.42119 9.26173Z" fill="white"/>
<path d="M3.57215 11.2278C3.19623 11.4652 2.76486 11.6003 2.32069 11.6199H2.28609C2.21894 11.6258 2.15139 11.6258 2.08424 11.6199C1.23071 12.8599 2.21688 13.7308 3.56638 12.6754C3.61827 12.3009 3.74792 11.9413 3.94701 11.6199C4.17349 11.2362 4.41989 10.8647 4.6852 10.5068C4.32781 10.7676 3.95622 11.0082 3.57215 11.2278Z" fill="white"/>
<path d="M6.5144 11.5684C6.34523 11.9789 6.15268 12.3794 5.9377 12.768C5.70188 13.2367 5.31334 13.611 4.83618 13.8292C4.71507 15.3345 5.9896 15.5998 6.64705 14.008C6.50953 13.6574 6.44288 13.2829 6.45097 12.9064C6.44813 12.4595 6.46931 12.0129 6.5144 11.5684Z" fill="white"/>
<path d="M7.56157 5.80068H7.67114C7.91956 4.64105 8.06622 3.46194 8.10944 2.27679C8.11111 2.08302 8.09177 1.88964 8.05177 1.70004C7.95373 1.27902 7.76342 1.07715 7.61347 1.07715C7.4693 1.07715 7.27321 1.27902 7.18094 1.70004C7.13561 1.88885 7.11429 2.08263 7.1175 2.27679C7.16271 3.4621 7.31129 4.64121 7.56157 5.80068Z" fill="white"/>
<path d="M4.51259 3.246C5.14024 4.25164 5.85627 5.19931 6.65218 6.0778L6.72139 6.03746C6.64065 5.78946 6.54261 5.52414 6.44457 5.25883C6.24272 4.71669 6.0178 4.14571 5.78135 3.62664C5.63717 3.3152 5.48723 3.0499 5.34305 2.7673C5.00279 2.19055 4.6337 1.9541 4.42032 1.9541C4.3819 1.95394 4.34411 1.96388 4.31074 1.98293C4.18963 2.05214 4.12043 2.32321 4.2473 2.73847C4.31381 2.91823 4.40295 3.08879 4.51259 3.246Z" fill="white"/>
<path d="M2.75198 5.36855C3.79833 5.92535 4.89273 6.3867 6.02191 6.74698C6.03312 6.72084 6.04663 6.69574 6.06228 6.672L5.43367 6.1356C4.98384 5.76648 4.50517 5.38587 4.03803 5.05712C3.76121 4.86103 3.46133 4.68222 3.23065 4.53227C2.95138 4.35475 2.63225 4.2497 2.30214 4.22661C2.23844 4.22015 2.17412 4.22938 2.11481 4.25351C2.05549 4.27764 2.00299 4.31593 1.96188 4.36503C1.89268 4.49191 1.96189 4.75722 2.28484 5.05712C2.42844 5.17805 2.58513 5.2825 2.75198 5.36855Z" fill="white"/>
<path d="M4.99435 7.38115C4.41764 7.2831 3.84093 7.19079 3.26422 7.13889C2.92396 7.13889 2.59524 7.09277 2.30112 7.09277C1.48219 7.09277 1.10156 7.3869 1.10156 7.58876C1.10156 7.79062 1.30341 7.92905 1.73017 8.0271C1.91971 8.06742 2.11311 8.08675 2.30688 8.08476C3.49197 8.04153 4.67101 7.89486 5.83057 7.64642V7.58876C5.82745 7.56967 5.82745 7.5502 5.83057 7.5311L4.99435 7.38115Z" fill="white"/>
<path d="M2.75237 9.83865C2.04302 10.2424 1.86424 10.6922 1.96228 10.8653C2.00398 10.9133 2.05675 10.9505 2.11603 10.9736C2.17531 10.9967 2.23932 11.0051 2.30254 10.9979C2.4459 11.0004 2.58853 10.977 2.72354 10.9287C2.90615 10.8706 3.08207 10.7933 3.24834 10.698C4.2527 10.0664 5.20016 9.34852 6.07998 8.55252C6.07998 8.55252 6.07998 8.50061 6.03961 8.47754L5.25529 8.75436C4.71318 8.95622 4.14801 9.18117 3.62897 9.42341C3.3291 9.54503 3.03643 9.68365 2.75237 9.83865Z" fill="white"/>
<path d="M6.64962 9.09473C6.47661 9.29659 6.29783 9.50427 6.11328 9.7292C5.73842 10.1733 5.36356 10.6519 5.02907 11.1191C4.83299 11.3959 4.65421 11.6959 4.51003 11.9266C4.10057 12.636 4.16401 13.1146 4.33702 13.2127C4.51003 13.3107 4.73495 13.2127 5.02907 12.8897C5.1601 12.7498 5.2743 12.5949 5.36933 12.4283C5.92027 11.3772 6.38135 10.2813 6.74766 9.15246L6.64962 9.09473Z" fill="white"/>
<path d="M8.64662 3.62096C8.81809 3.2133 9.01059 2.81484 9.22333 2.42713C9.40305 2.09319 9.65055 1.80045 9.94998 1.56775C10.1864 -0.133644 8.94074 -0.548898 8.28906 0.812217C8.59588 1.24112 8.7465 1.76221 8.71583 2.28868C8.71676 2.73369 8.69366 3.17843 8.64662 3.62096Z" fill="white"/>
<path d="M10.4844 4.68765C10.8423 4.42055 11.2138 4.17222 11.5974 3.94367C11.9209 3.7489 12.2795 3.61955 12.6528 3.56299C13.7082 2.21341 12.8374 1.25602 11.5917 2.08076C11.6477 2.60475 11.517 3.1317 11.2226 3.56877C10.9975 3.95519 10.7511 4.32874 10.4844 4.68765Z" fill="white"/>
<path d="M11.5469 6.52194C11.9911 6.47107 12.4377 6.44411 12.8848 6.44119C13.2621 6.43089 13.6373 6.49964 13.9864 6.64304C15.5781 5.99708 15.3186 4.7052 13.8076 4.82632C13.5946 5.30704 13.2188 5.69714 12.7464 5.92788C12.3595 6.15104 11.9589 6.34947 11.5469 6.52194Z" fill="white"/>
<path d="M14.3554 8.30957C13.9281 8.61514 13.4093 8.7657 12.8848 8.73635C12.4376 8.73137 11.991 8.70248 11.5469 8.64983C11.9564 8.82135 12.3567 9.01386 12.7464 9.22657C13.0773 9.40597 13.3678 9.65134 13.6 9.9475C15.3012 10.207 15.7453 8.96129 14.3554 8.30957Z" fill="white"/>
<path d="M12.8567 11.6206C12.4125 11.601 11.9812 11.4659 11.6052 11.2285C11.2216 11.002 10.8501 10.7556 10.4922 10.4902C10.7575 10.8481 11.0039 11.2197 11.2304 11.6034C11.4295 11.9248 11.5591 12.2843 11.611 12.6588C12.9605 13.7142 13.9467 12.8434 13.0989 11.6034L12.8567 11.6206Z" fill="white"/>
<path d="M9.23893 12.7505C9.02623 12.3607 8.83373 11.9603 8.66222 11.5508C8.71487 11.9949 8.74374 12.4416 8.74873 12.8889C8.75785 13.266 8.68913 13.641 8.54688 13.9904C9.19279 15.5822 10.4789 15.3169 10.3635 13.8116C9.87585 13.6007 9.47782 13.2251 9.23893 12.7505Z" fill="white"/>
<path d="M9.36768 3.60981C9.12546 4.12888 8.90054 4.69987 8.69869 5.24201C8.60065 5.50731 8.50838 5.7726 8.42188 6.0206L8.49685 6.06094C9.2928 5.18106 10.0106 4.23356 10.6422 3.22914C10.7383 3.06252 10.8175 2.88672 10.8787 2.70432C11.0055 2.28907 10.9363 2.018 10.8094 1.94879C10.7763 1.9292 10.7384 1.91923 10.6999 1.91996C10.4865 1.91996 10.1232 2.14487 9.78291 2.73315C9.62911 3.01783 9.49051 3.31047 9.36768 3.60981Z" fill="white"/>
<path d="M12.8617 4.20379C12.5334 4.22686 12.2161 4.33198 11.939 4.50949C11.6794 4.65944 11.4026 4.83821 11.1258 5.03431C10.6587 5.36305 10.18 5.74373 9.73594 6.11285L9.10156 6.64918L9.1477 6.72416C10.2787 6.36388 11.3751 5.90258 12.4234 5.34577C12.5897 5.25259 12.7445 5.14031 12.8848 5.01125C13.202 4.71134 13.2827 4.4345 13.2077 4.31915C13.1678 4.27012 13.1164 4.2318 13.058 4.20763C12.9996 4.18347 12.9361 4.17423 12.8732 4.18074L12.8617 4.20379Z" fill="white"/>
<path d="M13.4367 8.0271C13.8577 7.92905 14.0596 7.73295 14.0596 7.58876C14.0596 7.44458 13.6789 7.09277 12.8658 7.09277C12.5659 7.09277 12.2371 7.09275 11.9027 7.13889C11.3259 7.19079 10.7492 7.2831 10.1725 7.38115C9.88994 7.42728 9.59583 7.4792 9.35938 7.5311V7.64642C10.5188 7.89556 11.6979 8.04224 12.8831 8.08476C13.0691 8.0845 13.2546 8.06519 13.4367 8.0271Z" fill="white"/>
<path d="M9.10156 8.50042C9.98339 9.29648 10.9328 10.0143 11.939 10.6459C12.1033 10.7411 12.2773 10.8184 12.458 10.8766C12.5949 10.9255 12.7395 10.9489 12.8848 10.9458C12.9471 10.953 13.0103 10.9446 13.0687 10.9214C13.127 10.8983 13.1788 10.8611 13.2193 10.8131C13.3173 10.6401 13.1385 10.1903 12.4349 9.78654C12.1754 9.63659 11.8582 9.48663 11.5756 9.34821C11.0566 9.10598 10.4857 8.88103 9.94356 8.67917L9.15923 8.40234L9.10156 8.50042Z" fill="white"/>
<path d="M10.1351 11.1191C9.80635 10.6519 9.42572 10.1733 9.05663 9.7292C8.87208 9.50427 8.68753 9.29659 8.51452 9.09473L8.44531 9.14091C8.81107 10.2709 9.27417 11.3669 9.82941 12.4168C9.92259 12.5831 10.0349 12.7379 10.1639 12.8782C10.458 13.1954 10.7406 13.2761 10.856 13.2011C10.9713 13.1262 11.0924 12.6244 10.6887 11.915C10.5099 11.6728 10.3312 11.3959 10.1351 11.1191Z" fill="white"/>
<path d="M7.78952 10.1784C7.73762 9.89579 7.69148 9.6017 7.63958 9.36523H7.53001C7.4781 9.619 7.4262 9.89579 7.37429 10.1784C7.27625 10.7551 7.18975 11.3319 7.13784 11.9086C7.13784 12.2431 7.08594 12.5719 7.08594 12.8718C7.08594 13.6793 7.38006 14.0599 7.58191 14.0656C7.78376 14.0656 8.07788 13.6793 8.07788 12.8718C8.07692 12.5501 8.0596 12.2286 8.02598 11.9086C7.97407 11.3549 7.88756 10.7494 7.78952 10.1784Z" fill="white"/>
<path d="M7.58394 6.62598C7.34213 6.64473 7.11629 6.754 6.95156 6.93202C6.78682 7.11004 6.69531 7.34365 6.69531 7.58621C6.69531 7.82876 6.78682 8.06238 6.95156 8.24039C7.11629 8.41841 7.34213 8.52775 7.58394 8.54651C7.82575 8.52775 8.05159 8.41841 8.21633 8.24039C8.38106 8.06238 8.47258 7.82876 8.47258 7.58621C8.47258 7.34365 8.38106 7.11004 8.21633 6.93202C8.05159 6.754 7.82575 6.64473 7.58394 6.62598Z" fill="white"/>
</svg>
