<svg width="151" height="152" viewBox="0 0 151 152" fill="none" xmlns="http://www.w3.org/2000/svg">
<path d="M75.4978 148.857C115.736 148.857 148.355 116.238 148.355 76.0002C148.355 35.7623 115.736 3.14307 75.4978 3.14307C35.2599 3.14307 2.64062 35.7623 2.64062 76.0002C2.64062 116.238 35.2599 148.857 75.4978 148.857Z" stroke="#409587" stroke-width="5" stroke-miterlimit="10"/>
<path d="M95.6212 79.5787C90.8212 73.643 83.5141 69.8716 75.3498 69.8716C60.8855 69.8716 49.1641 81.7002 49.1641 96.293V107.886H78.6712" stroke="#409587" stroke-width="5" stroke-linecap="round" stroke-linejoin="round"/>
<path d="M75.3531 63.5285C81.6492 63.5285 86.7531 58.4246 86.7531 52.1285C86.7531 45.8325 81.6492 40.7285 75.3531 40.7285C69.0571 40.7285 63.9531 45.8325 63.9531 52.1285C63.9531 58.4246 69.0571 63.5285 75.3531 63.5285Z" stroke="#409587" stroke-width="5" stroke-miterlimit="10"/>
<path d="M111.99 102.164H89.2114C87.4114 102.164 86.2114 100.3 86.9614 98.6716L99.3686 71.3287C99.7757 70.4502 100.654 69.8716 101.619 69.8716H124.397C126.197 69.8716 127.397 71.7359 126.647 73.3644L114.24 100.707C113.833 101.586 112.954 102.164 111.99 102.164Z" fill="#409587"/>
<path d="M40.7031 107.8H110.003" stroke="#409587" stroke-width="5" stroke-miterlimit="10" stroke-linecap="round"/>
<path d="M78.9297 76.2998L82.2083 107.8" stroke="#409587" stroke-width="5" stroke-miterlimit="10" stroke-linecap="round"/>
<path d="M71.7708 76.2998L68.4922 107.8" stroke="#409587" stroke-width="5" stroke-miterlimit="10" stroke-linecap="round"/>
<path d="M70.4659 57.2073H60.3516V52.043C60.3516 43.7501 67.0587 37.043 75.3516 37.043C83.6444 37.043 90.3516 43.7501 90.3516 52.043" stroke="#409587" stroke-width="5" stroke-linecap="round" stroke-linejoin="round"/>
</svg>
