<svg width="152" height="152" viewBox="0 0 152 152" fill="none" xmlns="http://www.w3.org/2000/svg">
<path d="M75.9978 148.857C116.236 148.857 148.855 116.238 148.855 76.0002C148.855 35.7623 116.236 3.14307 75.9978 3.14307C35.7599 3.14307 3.14062 35.7623 3.14062 76.0002C3.14062 116.238 35.7599 148.857 75.9978 148.857Z" stroke="#409587" stroke-width="5" stroke-miterlimit="10"/>
<path d="M59.0092 30.1001H40.6877C39.0782 30.1001 37.7734 31.4049 37.7734 33.0144V56.7144C37.7734 58.3239 39.0782 59.6287 40.6877 59.6287H59.0092C60.6187 59.6287 61.9234 58.3239 61.9234 56.7144V33.0144C61.9234 31.4049 60.6187 30.1001 59.0092 30.1001Z" fill="#409587"/>
<path d="M40.2344 57.7645C40.2344 52.4502 44.5415 48.1431 49.8558 48.1431C55.1701 48.1431 59.4772 52.4502 59.4772 57.7645" fill="white"/>
<path d="M49.8339 45.7645C52.7453 45.7645 55.1054 43.4044 55.1054 40.4931C55.1054 37.5818 52.7453 35.2217 49.8339 35.2217C46.9226 35.2217 44.5625 37.5818 44.5625 40.4931C44.5625 43.4044 46.9226 45.7645 49.8339 45.7645Z" fill="white"/>
<path d="M85.1498 30.1001H66.8283C65.2188 30.1001 63.9141 31.4049 63.9141 33.0144V56.7144C63.9141 58.3239 65.2188 59.6287 66.8283 59.6287H85.1498C86.7593 59.6287 88.0641 58.3239 88.0641 56.7144V33.0144C88.0641 31.4049 86.7593 30.1001 85.1498 30.1001Z" fill="#409587"/>
<path d="M66.375 57.7645C66.375 52.4502 70.6821 48.1431 75.9964 48.1431C81.3107 48.1431 85.6179 52.4502 85.6179 57.7645" fill="white"/>
<path d="M75.998 45.7645C78.9093 45.7645 81.2694 43.4044 81.2694 40.4931C81.2694 37.5818 78.9093 35.2217 75.998 35.2217C73.0867 35.2217 70.7266 37.5818 70.7266 40.4931C70.7266 43.4044 73.0867 45.7645 75.998 45.7645Z" fill="white"/>
<path d="M111.314 30.1001H92.9924C91.3829 30.1001 90.0781 31.4049 90.0781 33.0144V56.7144C90.0781 58.3239 91.3829 59.6287 92.9924 59.6287H111.314C112.923 59.6287 114.228 58.3239 114.228 56.7144V33.0144C114.228 31.4049 112.923 30.1001 111.314 30.1001Z" fill="#409587"/>
<path d="M92.5391 57.7645C92.5391 52.4502 96.8462 48.1431 102.16 48.1431C107.475 48.1431 111.782 52.4502 111.782 57.7645" fill="white"/>
<path d="M102.162 45.7645C105.073 45.7645 107.433 43.4044 107.433 40.4931C107.433 37.5818 105.073 35.2217 102.162 35.2217C99.2507 35.2217 96.8906 37.5818 96.8906 40.4931C96.8906 43.4044 99.2507 45.7645 102.162 45.7645Z" fill="white"/>
<path d="M59.0092 61.2358H40.6877C39.0782 61.2358 37.7734 62.5406 37.7734 64.1501V87.8501C37.7734 89.4596 39.0782 90.7644 40.6877 90.7644H59.0092C60.6187 90.7644 61.9234 89.4596 61.9234 87.8501V64.1501C61.9234 62.5406 60.6187 61.2358 59.0092 61.2358Z" fill="#409587"/>
<path d="M40.2344 88.9217C40.2344 83.6074 44.5415 79.3003 49.8558 79.3003C55.1701 79.3003 59.4772 83.6074 59.4772 88.9217" fill="white"/>
<path d="M49.8339 76.9003C52.7453 76.9003 55.1054 74.5402 55.1054 71.6288C55.1054 68.7175 52.7453 66.3574 49.8339 66.3574C46.9226 66.3574 44.5625 68.7175 44.5625 71.6288C44.5625 74.5402 46.9226 76.9003 49.8339 76.9003Z" fill="white"/>
<path d="M85.1498 61.2358H66.8283C65.2188 61.2358 63.9141 62.5406 63.9141 64.1501V87.8501C63.9141 89.4596 65.2188 90.7644 66.8283 90.7644H85.1498C86.7593 90.7644 88.0641 89.4596 88.0641 87.8501V64.1501C88.0641 62.5406 86.7593 61.2358 85.1498 61.2358Z" fill="#409587"/>
<path d="M66.375 88.9217C66.375 83.6074 70.6821 79.3003 75.9964 79.3003C81.3107 79.3003 85.6179 83.6074 85.6179 88.9217" fill="white"/>
<path d="M75.998 76.9003C78.9093 76.9003 81.2694 74.5402 81.2694 71.6288C81.2694 68.7175 78.9093 66.3574 75.998 66.3574C73.0867 66.3574 70.7266 68.7175 70.7266 71.6288C70.7266 74.5402 73.0867 76.9003 75.998 76.9003Z" fill="white"/>
<path d="M111.314 61.2358H92.9924C91.3829 61.2358 90.0781 62.5406 90.0781 64.1501V87.8501C90.0781 89.4596 91.3829 90.7644 92.9924 90.7644H111.314C112.923 90.7644 114.228 89.4596 114.228 87.8501V64.1501C114.228 62.5406 112.923 61.2358 111.314 61.2358Z" fill="#409587"/>
<path d="M92.5391 88.9217C92.5391 83.6074 96.8462 79.3003 102.16 79.3003C107.475 79.3003 111.782 83.6074 111.782 88.9217" fill="white"/>
<path d="M102.162 76.9003C105.073 76.9003 107.433 74.5402 107.433 71.6288C107.433 68.7175 105.073 66.3574 102.162 66.3574C99.2507 66.3574 96.8906 68.7175 96.8906 71.6288C96.8906 74.5402 99.2507 76.9003 102.162 76.9003Z" fill="white"/>
<path d="M59.0092 92.3716H40.6877C39.0782 92.3716 37.7734 93.6764 37.7734 95.2859V118.986C37.7734 120.595 39.0782 121.9 40.6877 121.9H59.0092C60.6187 121.9 61.9234 120.595 61.9234 118.986V95.2859C61.9234 93.6764 60.6187 92.3716 59.0092 92.3716Z" fill="#409587"/>
<path d="M40.2344 120.057C40.2344 114.743 44.5415 110.436 49.8558 110.436C55.1701 110.436 59.4772 114.743 59.4772 120.057" fill="white"/>
<path d="M49.8339 108.036C52.7453 108.036 55.1054 105.676 55.1054 102.765C55.1054 99.8533 52.7453 97.4932 49.8339 97.4932C46.9226 97.4932 44.5625 99.8533 44.5625 102.765C44.5625 105.676 46.9226 108.036 49.8339 108.036Z" fill="white"/>
<path d="M85.1498 92.3716H66.8283C65.2188 92.3716 63.9141 93.6764 63.9141 95.2859V118.986C63.9141 120.595 65.2188 121.9 66.8283 121.9H85.1498C86.7593 121.9 88.0641 120.595 88.0641 118.986V95.2859C88.0641 93.6764 86.7593 92.3716 85.1498 92.3716Z" fill="#409587"/>
<path d="M66.375 120.057C66.375 114.743 70.6821 110.436 75.9964 110.436C81.3107 110.436 85.6179 114.743 85.6179 120.057" fill="white"/>
<path d="M75.998 108.036C78.9093 108.036 81.2694 105.676 81.2694 102.765C81.2694 99.8533 78.9093 97.4932 75.998 97.4932C73.0867 97.4932 70.7266 99.8533 70.7266 102.765C70.7266 105.676 73.0867 108.036 75.998 108.036Z" fill="white"/>
<path d="M111.314 92.3716H92.9924C91.3829 92.3716 90.0781 93.6764 90.0781 95.2859V118.986C90.0781 120.595 91.3829 121.9 92.9924 121.9H111.314C112.923 121.9 114.228 120.595 114.228 118.986V95.2859C114.228 93.6764 112.923 92.3716 111.314 92.3716Z" fill="#409587"/>
<path d="M92.5391 120.057C92.5391 114.743 96.8462 110.436 102.16 110.436C107.475 110.436 111.782 114.743 111.782 120.057" fill="white"/>
<path d="M102.162 108.036C105.073 108.036 107.433 105.676 107.433 102.765C107.433 99.8533 105.073 97.4932 102.162 97.4932C99.2507 97.4932 96.8906 99.8533 96.8906 102.765C96.8906 105.676 99.2507 108.036 102.162 108.036Z" fill="white"/>
</svg>
