<svg width="151" height="152" viewBox="0 0 151 152" fill="none" xmlns="http://www.w3.org/2000/svg">
<path d="M75.4978 148.857C115.736 148.857 148.355 116.238 148.355 76.0002C148.355 35.7623 115.736 3.14307 75.4978 3.14307C35.2599 3.14307 2.64062 35.7623 2.64062 76.0002C2.64062 116.238 35.2599 148.857 75.4978 148.857Z" stroke="#409587" stroke-width="5" stroke-miterlimit="10"/>
<path d="M102.25 72.5926C103.814 71.3283 105.936 70.4497 108.786 70.2568C108.786 70.2568 111.464 72.8711 111.893 76.9426" stroke="#409587" stroke-width="5" stroke-linecap="round" stroke-linejoin="round"/>
<path d="M95.6272 119.114C94.0629 120.378 91.9415 121.257 89.0915 121.45C89.0915 121.45 86.4129 118.836 85.9844 114.764" stroke="#409587" stroke-width="5" stroke-linecap="round" stroke-linejoin="round"/>
<path d="M122.194 99.1646C123.458 100.729 124.337 102.85 124.529 105.7C124.529 105.7 121.915 108.379 117.844 108.807" stroke="#409587" stroke-width="5" stroke-linecap="round" stroke-linejoin="round"/>
<path d="M75.6717 92.5642C74.4074 91 73.5288 88.8785 73.3359 86.0285C73.3359 86.0285 75.9502 83.35 80.0217 82.9214" stroke="#409587" stroke-width="5" stroke-linecap="round" stroke-linejoin="round"/>
<path d="M117.719 81.7642C119.712 81.9784 121.833 82.857 123.976 84.7213C123.976 84.7213 124.019 88.4713 121.447 91.6427" stroke="#409587" stroke-width="5" stroke-linecap="round" stroke-linejoin="round"/>
<path d="M80.1536 109.964C78.1607 109.75 76.0393 108.871 73.875 107.007C73.875 107.007 73.8322 103.257 76.4036 100.085" stroke="#409587" stroke-width="5" stroke-linecap="round" stroke-linejoin="round"/>
<path d="M113.05 114.657C112.836 116.65 111.958 118.772 110.093 120.914C110.093 120.914 106.343 120.957 103.172 118.386" stroke="#409587" stroke-width="5" stroke-linecap="round" stroke-linejoin="round"/>
<path d="M84.8281 77.0712C85.0424 75.0783 85.921 72.9569 87.7853 70.814C87.7853 70.814 91.5353 70.7711 94.7067 73.3426" stroke="#409587" stroke-width="5" stroke-linecap="round" stroke-linejoin="round"/>
<path d="M92.7977 81.3142C92.3477 77.4999 93.2049 72.807 98.9477 70.1499C98.9477 70.1499 105.848 73.1285 104.926 81.0785" stroke="#409587" stroke-width="5" stroke-linecap="round" stroke-linejoin="round"/>
<path d="M105.056 110.307C105.549 114.143 104.735 118.9 98.9277 121.6C98.9277 121.6 91.942 118.579 92.9706 110.5" stroke="#409587" stroke-width="5" stroke-linecap="round" stroke-linejoin="round"/>
<path d="M113.477 89.7142C117.291 89.2642 121.984 90.1214 124.641 95.8642C124.641 95.8642 121.662 102.764 113.712 101.843" stroke="#409587" stroke-width="5" stroke-linecap="round" stroke-linejoin="round"/>
<path d="M84.3752 102.014C80.5609 102.464 75.8681 101.607 73.2109 95.8641C73.2109 95.8641 76.1895 88.9641 84.1395 89.8855" stroke="#409587" stroke-width="5" stroke-linecap="round" stroke-linejoin="round"/>
<path d="M101.906 86.7786C101.906 86.7786 105.956 73.5786 117.121 77.6714C117.121 77.6714 121.321 88.2357 107.692 92.6286" stroke="#409587" stroke-width="5" stroke-linecap="round" stroke-linejoin="round"/>
<path d="M95.9656 104.929C95.9656 104.929 91.9156 118.129 80.7513 114.036C80.7513 114.036 76.5513 103.471 90.1799 99.0786" stroke="#409587" stroke-width="5" stroke-linecap="round" stroke-linejoin="round"/>
<path d="M108.014 98.8428C108.014 98.8428 121.214 102.893 117.121 114.057C117.121 114.057 106.557 118.257 102.164 104.628" stroke="#409587" stroke-width="5" stroke-linecap="round" stroke-linejoin="round"/>
<path d="M89.8631 92.886C89.8631 92.886 76.6631 88.836 80.7559 77.6717C80.7559 77.6717 91.3202 73.4717 95.7131 87.1003" stroke="#409587" stroke-width="5" stroke-linecap="round" stroke-linejoin="round"/>
<path d="M98.929 105.121C104.042 105.121 108.186 100.977 108.186 95.8641C108.186 90.7515 104.042 86.6069 98.929 86.6069C93.8164 86.6069 89.6719 90.7515 89.6719 95.8641C89.6719 100.977 93.8164 105.121 98.929 105.121Z" stroke="#409587" stroke-width="5" stroke-linecap="round" stroke-linejoin="round"/>
<path d="M99.4971 65.5V42.7H82.9971V38.3286C82.9971 36.55 81.5614 35.1357 79.8042 35.1357C78.0471 35.1357 76.6114 36.5715 76.6114 38.3286V42.7H66.1328V38.3286C66.1328 36.55 64.6971 35.1357 62.94 35.1357C61.1828 35.1357 59.7471 36.5715 59.7471 38.3286V42.7H49.2685V38.3286C49.2685 36.55 47.8328 35.1357 46.0757 35.1357C44.3185 35.1357 42.8828 36.5715 42.8828 38.3286V42.7H26.3828V95.8643H69.1542" stroke="#409587" stroke-width="5" stroke-linecap="round" stroke-linejoin="round"/>
<path d="M46.3795 35.1362H45.7152C44.1293 35.1362 42.8438 36.4218 42.8438 38.0077V47.3934C42.8438 48.9792 44.1293 50.2648 45.7152 50.2648H46.3795C47.9653 50.2648 49.2509 48.9792 49.2509 47.3934V38.0077C49.2509 36.4218 47.9653 35.1362 46.3795 35.1362Z" fill="#409587" stroke="#409587" stroke-width="5" stroke-linecap="round" stroke-linejoin="round"/>
<path d="M63.2623 35.1357H62.598C61.0121 35.1357 59.7266 36.4213 59.7266 38.0072V47.3929C59.7266 48.9787 61.0121 50.2643 62.598 50.2643H63.2623C64.8481 50.2643 66.1337 48.9787 66.1337 47.3929V38.0072C66.1337 36.4213 64.8481 35.1357 63.2623 35.1357Z" fill="#409587" stroke="#409587" stroke-width="5" stroke-linecap="round" stroke-linejoin="round"/>
<path d="M80.1295 35.1357H79.4652C77.8793 35.1357 76.5938 36.4213 76.5938 38.0072V47.3929C76.5938 48.9787 77.8793 50.2643 79.4652 50.2643H80.1295C81.7153 50.2643 83.0009 48.9787 83.0009 47.3929V38.0072C83.0009 36.4213 81.7153 35.1357 80.1295 35.1357Z" fill="#409587" stroke="#409587" stroke-width="5" stroke-linecap="round" stroke-linejoin="round"/>
<path d="M38.9453 55.4497V87.1854" stroke="#409587" stroke-width="5" stroke-linecap="round" stroke-linejoin="round"/>
<path d="M50.9453 55.4497V87.1854" stroke="#409587" stroke-width="5" stroke-linecap="round" stroke-linejoin="round"/>
<path d="M62.9219 55.4497V87.1854" stroke="#409587" stroke-width="5" stroke-linecap="round" stroke-linejoin="round"/>
<path d="M74.8984 55.4497V77.6497" stroke="#409587" stroke-width="5" stroke-linecap="round" stroke-linejoin="round"/>
<path d="M86.9062 55.4497V66.614" stroke="#409587" stroke-width="5" stroke-linecap="round" stroke-linejoin="round"/>
<path d="M32.6875 60.7212H93.1589" stroke="#409587" stroke-width="5" stroke-linecap="round" stroke-linejoin="round"/>
<path d="M32.6875 71.3281H81.8018" stroke="#409587" stroke-width="5" stroke-linecap="round" stroke-linejoin="round"/>
<path d="M32.6875 81.9355H70.7446" stroke="#409587" stroke-width="5" stroke-linecap="round" stroke-linejoin="round"/>
<path d="M98.8353 105.036C103.948 105.036 108.092 100.891 108.092 95.7786C108.092 90.666 103.948 86.5215 98.8353 86.5215C93.7227 86.5215 89.5781 90.666 89.5781 95.7786C89.5781 100.891 93.7227 105.036 98.8353 105.036Z" fill="#409587"/>
</svg>
