<svg width="152" height="152" viewBox="0 0 152 152" fill="none" xmlns="http://www.w3.org/2000/svg">
<path d="M75.9978 148.857C116.236 148.857 148.855 116.238 148.855 76.0002C148.855 35.7623 116.236 3.14307 75.9978 3.14307C35.7599 3.14307 3.14062 35.7623 3.14062 76.0002C3.14062 116.238 35.7599 148.857 75.9978 148.857Z" stroke="#409587" stroke-width="5" stroke-miterlimit="10"/>
<path d="M93.8098 28.4712H58.1955C56.586 28.4712 55.2812 29.776 55.2812 31.3855V76.214C55.2812 77.8236 56.586 79.1283 58.1955 79.1283H93.8098C95.4193 79.1283 96.7241 77.8236 96.7241 76.214V31.3855C96.7241 29.776 95.4193 28.4712 93.8098 28.4712Z" fill="#409587"/>
<path d="M59.5 75.957C59.5 66.8499 66.8929 59.457 76 59.457C85.1071 59.457 92.5 66.8499 92.5 75.957" fill="white"/>
<path d="M76.0038 55.3426C80.998 55.3426 85.0467 51.2939 85.0467 46.2997C85.0467 41.3055 80.998 37.2568 76.0038 37.2568C71.0096 37.2568 66.9609 41.3055 66.9609 46.2997C66.9609 51.2939 71.0096 55.3426 76.0038 55.3426Z" fill="white"/>
<path d="M48.2109 48.2712L75.6395 22.4927L103.797 48.2712" stroke="#F9FAFB" stroke-width="6.5" stroke-linejoin="round"/>
<path d="M49.75 77.7998H102.25" stroke="#409587" stroke-width="5" stroke-linecap="round" stroke-linejoin="round"/>
<path d="M41.1562 123.529H110.842" stroke="#409587" stroke-width="5" stroke-linecap="round" stroke-linejoin="round"/>
<path d="M49.7493 38.3716H39.5065C34.6636 38.3716 30.7422 42.293 30.7422 47.1359V97.193C30.7422 102.036 34.6636 105.957 39.5065 105.957H112.492C117.335 105.957 121.256 102.036 121.256 97.193V47.1359C121.256 42.293 117.335 38.3716 112.492 38.3716H102.249" stroke="#409587" stroke-width="5" stroke-linecap="round" stroke-linejoin="round"/>
<path d="M102.677 47.2856H111.269V95.4999H40.7266V47.2856H50.198" stroke="#409587" stroke-width="5" stroke-linecap="round" stroke-linejoin="round"/>
<path d="M83.4806 105.957H68.5234V123.528H83.4806V105.957Z" stroke="#409587" stroke-width="5" stroke-linecap="round" stroke-linejoin="round"/>
</svg>
