<svg width="152" height="152" viewBox="0 0 152 152" fill="none" xmlns="http://www.w3.org/2000/svg">
<path d="M75.9978 148.857C116.236 148.857 148.855 116.238 148.855 76.0002C148.855 35.7623 116.236 3.14307 75.9978 3.14307C35.7599 3.14307 3.14062 35.7623 3.14062 76.0002C3.14062 116.238 35.7599 148.857 75.9978 148.857Z" stroke="#409587" stroke-width="5" stroke-miterlimit="10"/>
<path d="M25.4297 95.3071C25.4297 86.2 32.8225 78.8071 41.9297 78.8071C51.0368 78.8071 58.4297 86.2 58.4297 95.3071" stroke="#409587" stroke-width="5" stroke-linecap="round" stroke-linejoin="round"/>
<path d="M41.9335 74.8001C46.9277 74.8001 50.9763 70.7514 50.9763 65.7572C50.9763 60.763 46.9277 56.7144 41.9335 56.7144C36.9393 56.7144 32.8906 60.763 32.8906 65.7572C32.8906 70.7514 36.9393 74.8001 41.9335 74.8001Z" fill="#409587"/>
<path d="M127.24 50.6714H91.6252C90.0157 50.6714 88.7109 51.9762 88.7109 53.5857V98.4142C88.7109 100.024 90.0157 101.329 91.6252 101.329H127.24C128.849 101.329 130.154 100.024 130.154 98.4142V53.5857C130.154 51.9762 128.849 50.6714 127.24 50.6714Z" fill="#409587"/>
<path d="M92.9297 98.1572C92.9297 89.0501 100.323 81.6572 109.43 81.6572C118.537 81.6572 125.93 89.0501 125.93 98.1572" fill="white"/>
<path d="M109.426 77.5427C114.42 77.5427 118.469 73.4941 118.469 68.4999C118.469 63.5057 114.42 59.457 109.426 59.457C104.431 59.457 100.383 63.5057 100.383 68.4999C100.383 73.4941 104.431 77.5427 109.426 77.5427Z" fill="white"/>
<path d="M81.6328 70.4714L109.061 44.6929L137.197 70.4714" stroke="#F9FAFB" stroke-width="6.5" stroke-linejoin="round"/>
<path d="M76 28.707V123.293" stroke="#409587" stroke-width="5" stroke-linecap="round" stroke-linejoin="round"/>
</svg>
